<?xml version="1.0" encoding="utf-8"?>
<!-- Generator: Adobe Illustrator 21.1.0, SVG Export Plug-In . SVG Version: 6.00 Build 0)  -->
<svg version="1.1" xmlns="http://www.w3.org/2000/svg" xmlns:xlink="http://www.w3.org/1999/xlink" x="0px" y="0px"
	 viewBox="0 0 210 76" style="enable-background:new 0 0 210 76;" xml:space="preserve">
<style type="text/css">
	.st0{display:none;}
	.st1{display:inline;}
	.st2{fill:#D34B38;}
	.st3{fill:url(#SVGID_1_);}
	.st4{fill:url(#SVGID_2_);}
	.st5{fill:#FFFFFF;}
	.st6{display:inline;fill:url(#SVGID_3_);}
	.st7{display:inline;fill:url(#SVGID_4_);}
	.st8{fill:url(#SVGID_5_);}
	.st9{fill:url(#SVGID_6_);}
	.st10{fill:url(#SVGID_7_);}
	.st11{fill:url(#SVGID_8_);}
	.st12{fill:#D24B38;}
	.st13{fill:url(#SVGID_9_);}
	.st14{fill:url(#SVGID_10_);}
	.st15{fill:url(#SVGID_11_);}
	.st16{fill:url(#SVGID_12_);}
	.st17{fill:url(#SVGID_13_);}
	.st18{fill:url(#SVGID_14_);}
	.st19{fill:url(#SVGID_15_);}
	.st20{fill:url(#SVGID_16_);}
	.st21{fill:url(#SVGID_17_);}
	.st22{fill:url(#SVGID_18_);}
	.st23{fill:url(#SVGID_19_);}
	.st24{fill:url(#SVGID_20_);}
	.st25{fill:url(#SVGID_21_);}
	.st26{fill:url(#SVGID_22_);}
	.st27{display:inline;fill:#D24B38;}
	.st28{fill:url(#SVGID_23_);}
	.st29{fill:url(#SVGID_24_);}
	.st30{fill:url(#SVGID_25_);}
	.st31{fill:url(#SVGID_26_);}
	.st32{fill:url(#SVGID_27_);}
	.st33{fill:url(#SVGID_28_);}
</style>
<g id="Layer_13" class="st0">
	<rect x="-25" y="-26" class="st1" width="322.5" height="165.5"/>
</g>
<g id="Layer_1" class="st0">
	<g id="Layer_1_1_">
		<g class="st1">
			<path class="st2" d="M59.4,48.6c0-2.4,1.8-4.3,4.3-4.3c2,0,3.6,1.3,4,3.1h-2.2c-0.3-0.7-1-1.2-1.9-1.2c-1.4,0-2.3,1-2.3,2.4
				s0.9,2.4,2.3,2.4c0.9,0,1.6-0.4,1.9-1.2h2.2c-0.5,1.8-2,3.1-4,3.1C61.2,52.9,59.4,51.1,59.4,48.6z"/>
			<path class="st2" d="M75.6,44.5V50c0,2-1.4,3-3,3s-2.9-1-2.9-3v-0.4h2v0.3c0,0.9,0.4,1.1,0.9,1.1s0.9-0.2,0.9-1.1v-5.4
				C73.5,44.5,75.6,44.5,75.6,44.5z"/>
			<path class="st2" d="M80.4,46.4v1.2h3.4v1.9h-3.4v1.3h3.7v1.9h-5.7v-8.3h5.7v1.9L80.4,46.4L80.4,46.4z"/>
			<path class="st2" d="M92,50.9v1.9h-5.4v-8.3h2v6.4C88.6,50.9,92,50.9,92,50.9z"/>
			<path class="st2" d="M102.6,48.6c0,2.4-1.9,4.3-4.3,4.3c-2.5,0-4.3-1.9-4.3-4.3c0-2.4,1.9-4.3,4.3-4.3S102.6,46.2,102.6,48.6z
				 M96,48.6c0,1.4,1,2.4,2.3,2.4s2.3-1,2.3-2.4s-1-2.4-2.3-2.4S96,47.3,96,48.6z"/>
			<path class="st2" d="M111,50.9v1.9h-6.3v-1.9l3.7-4.5h-3.5v-1.9h6v1.9l-3.7,4.5H111z M107.8,43.6l-1.9-1.9l1.1-1.1l0.9,1l0.9-1
				l1.1,1.1L107.8,43.6z"/>
			<path class="st2" d="M113.4,44.5h2v8.3h-2V44.5z"/>
			<path class="st2" d="M125.5,44.5l-2.6,8.3h-2.5l-2.6-8.3h2.1l1.7,5.9l1.7-5.9H125.5z"/>
			<path class="st2" d="M136.2,48.6c0,2.4-1.9,4.3-4.3,4.3c-2.5,0-4.3-1.9-4.3-4.3c0-2.4,1.9-4.3,4.3-4.3S136.2,46.2,136.2,48.6z
				 M129.5,48.6c0,1.4,1,2.4,2.3,2.4s2.3-1,2.3-2.4s-1-2.4-2.3-2.4C130.5,46.3,129.5,47.3,129.5,48.6z"/>
			<path class="st2" d="M144.7,46.4h-2.3v6.4h-2v-6.4h-2.3v-1.9h6.5v1.9H144.7z"/>
			<path class="st2" d="M154.2,44.5v8.3h-2.3l-3.1-5.2l0.2,1.8v3.5h-2v-8.3h2.3l3.1,5.2l-0.2-1.8v-3.5H154.2z"/>
			<path class="st2" d="M165.3,48.6c0,2.4-1.9,4.3-4.3,4.3c-2.5,0-4.3-1.9-4.3-4.3c0-2.4,1.9-4.3,4.3-4.3
				C163.4,44.3,165.3,46.2,165.3,48.6z M158.7,48.6c0,1.4,1,2.4,2.3,2.4s2.3-1,2.3-2.4s-1-2.4-2.3-2.4
				C159.6,46.3,158.7,47.3,158.7,48.6z"/>
			<path class="st2" d="M68,62.9c0,2.4-1.9,4.3-4.3,4.3c-2.5,0-4.3-1.9-4.3-4.3c0-2.4,1.9-4.3,4.3-4.3C66.1,58.6,68,60.4,68,62.9z
				 M61.4,62.9c0,1.4,1,2.4,2.3,2.4s2.3-1,2.3-2.4s-1-2.4-2.3-2.4C62.3,60.5,61.4,61.5,61.4,62.9z"/>
			<path class="st2" d="M77.1,64.6c0,1.6-1.2,2.4-2.8,2.4h-3.8v-8.3h3.8c1.4,0,2.6,0.7,2.6,2.2c0,0.8-0.3,1.3-1,1.6
				C76.7,62.9,77.1,63.7,77.1,64.6z M74,60.7h-1.5v1.2H74c0.5,0,0.7-0.2,0.7-0.6C74.8,60.8,74.5,60.7,74,60.7z M75.1,64.4
				c0-0.5-0.2-0.7-0.8-0.7h-1.7v1.4h1.7C74.9,65.1,75.1,64.9,75.1,64.4z"/>
			<path class="st2" d="M82.2,64.2h-0.6V67h-2v-8.3h3.7c1.8,0,2.8,1,2.8,2.8c0,1.3-0.6,2.1-1.7,2.5l2.2,3.1h-2.5L82.2,64.2z
				 M83,60.7h-1.5v1.7H83c0.7,0,1-0.3,1-0.9C84,61,83.7,60.7,83,60.7z"/>
			<path class="st2" d="M94.2,65.3h-3.1L90.5,67h-2.1l3-8.3H94l3,8.3h-2.1L94.2,65.3z M93.6,63.4l-0.9-2.6l-0.9,2.6H93.6z"/>
			<path class="st2" d="M105.1,65.1V67h-6.3v-1.9l3.7-4.5H99v-1.9h6v1.9l-3.7,4.5H105.1z"/>
			<path class="st2" d="M115.9,62.9c0,2.4-1.9,4.3-4.3,4.3c-2.5,0-4.3-1.9-4.3-4.3c0-2.4,1.9-4.3,4.3-4.3
				C114,58.6,115.9,60.4,115.9,62.9z M109.3,62.9c0,1.4,1,2.4,2.3,2.4s2.3-1,2.3-2.4s-1-2.4-2.3-2.4
				C110.2,60.5,109.3,61.5,109.3,62.9z"/>
			<path class="st2" d="M125.6,58.7L123,67h-2.5l-2.6-8.3h2.1l1.7,5.9l1.7-5.9C123.4,58.7,125.6,58.7,125.6,58.7z"/>
			<path class="st2" d="M133.3,65.3h-3.1l-0.6,1.7h-2.1l3-8.3h2.5l3,8.3h-2.1L133.3,65.3z M132.6,63.4l-0.9-2.6l-0.9,2.6H132.6z"/>
			<path class="st2" d="M145.5,58.7V67h-2.3l-3.1-5.2l0.2,1.8V67h-2v-8.3h2.3l3.1,5.2l-0.2-1.8v-3.5L145.5,58.7L145.5,58.7z"/>
			<path class="st2" d="M153.7,58.7v5.5c0,2-1.4,3-3,3s-2.9-1-2.9-3v-0.4h2v0.3c0,0.9,0.4,1.1,0.9,1.1s0.9-0.2,0.9-1.1v-5.4
				C151.6,58.7,153.7,58.7,153.7,58.7z"/>
			<path class="st2" d="M158.6,60.7v1.2h3.4v1.9h-3.4v1.3h3.7V67h-5.7v-8.3h5.7v1.9L158.6,60.7L158.6,60.7z"/>
		</g>
		<g class="st1">
			
				<linearGradient id="SVGID_1_" gradientUnits="userSpaceOnUse" x1="10.3709" y1="-8.283" x2="55.042" y2="36.3881" gradientTransform="matrix(1 0 0 -1 0 76)">
				<stop  offset="0.268" style="stop-color:#E07426"/>
				<stop  offset="0.7182" style="stop-color:#C01B67"/>
			</linearGradient>
			<path class="st3" d="M42.3,48.5c-1.4,0.8-2.8,1.4-4.2,2.1l5.3,13c-1.6,0.2-4.7,0.5-7.1,0.6c-5.9,0-10.3-0.9-12.4-2.7
				c-1-0.8-1.5-1.9-1.5-3.2c0-3.8,4-5.8,11.3-9.2c4.7-2.2,10.1-4.9,15.3-8.8l-1.7-4.2c-6.6,4.7-9.8,6-15.6,8.7
				c-3.7,1.7-6.9,3.2-9.4,5.1c-3.1,2.4-4.6,5.1-4.6,8.4c0,2.7,1.1,5,3.2,6.8c3,2.5,8,3.8,15,3.8c0.1,0,0.3,0,0.4,0
				c5.1,0,9.4-0.7,9.6-0.8l4.1-0.8L42.3,48.5z"/>
			
				<linearGradient id="SVGID_2_" gradientUnits="userSpaceOnUse" x1="-3.6462" y1="6.2533" x2="41.3243" y2="51.2237" gradientTransform="matrix(1 0 0 -1 0 76)">
				<stop  offset="0.268" style="stop-color:#E07426"/>
				<stop  offset="0.7182" style="stop-color:#C01B67"/>
			</linearGradient>
			<path class="st4" d="M17.5,62.5H7.4l12.5-30.6l0.1-0.2c0.6-1.5,1.4-3.4,2.5-4.2c0.4-0.3,1.2-0.8,2.8-0.8c1.6,0,2.4,0.5,2.8,0.8
				c1.1,0.8,1.9,2.7,2.5,4.2l0.3,0.7l3.9,9.6c1.1-0.5,2.1-0.9,3.1-1.5c0.4-0.2,0.8-0.4,1.1-0.6l-4-9.8L34.8,30
				c-0.8-2-1.9-4.5-3.9-6.1c-1-0.8-2.7-1.6-5.2-1.8c0,0-0.2,0-0.4,0c-0.1,0-0.4,0-0.4,0c-2.6,0.1-4.3,1-5.2,1.8
				c-2.1,1.6-3.1,4.1-3.9,6.1L0.4,67.2h21.1c-0.5-0.3-1-0.7-1.4-1C18.9,65.2,18,63.9,17.5,62.5z"/>
		</g>
		<g class="st1">
			<g>
				<g>
					<path class="st5" d="M68.6,33.2h-5.1l-1,2.8H59l5-13.7h4.2l5,13.7h-3.5L68.6,33.2z M67.5,30L66,25.8L64.6,30H67.5z"/>
					<path class="st5" d="M84.7,32.9V36h-8.9V22.3h3.3v10.5h5.6V32.9z"/>
					<path class="st5" d="M100.8,28.5V36H98v-1.9c-0.6,1.2-2.2,2.2-4.3,2.2c-3.8,0-6.8-3-6.8-7.1s3-7.1,7.1-7.1c3.4,0,5.9,2,6.7,4.9
						h-3.6c-0.5-1.1-1.7-1.7-3.1-1.7c-2.3,0-3.7,1.6-3.7,4c0,2.2,1.2,3.9,3.7,3.9c1.5,0,2.8-0.7,3.3-2h-4.1v-2.8h7.6V28.5z"/>
					<path class="st5" d="M108.2,25.5v2h5.6v3.2h-5.6v2.2h6.1V36h-9.4V22.3h9.4v3.2H108.2z"/>
					<path class="st5" d="M129.1,32c0,2.6-1.9,4-4.7,4h-6.2V22.3h6.2c2.4,0,4.2,1.2,4.2,3.6c0,1.3-0.6,2.1-1.6,2.7
						C128.5,29.1,129.1,30.5,129.1,32z M124,25.5h-2.4v2.1h2.5c0.7,0,1.2-0.3,1.2-1C125.3,25.7,124.8,25.5,124,25.5z M125.8,31.7
						c0-0.8-0.3-1.1-1.4-1.1h-2.8v2.3h2.8C125.5,32.9,125.8,32.4,125.8,31.7z"/>
					<path class="st5" d="M137.5,31.3h-1V36h-3.3V22.3h6.1c2.9,0,4.7,1.7,4.7,4.6c0,2.2-1.1,3.5-2.7,4l3.6,5.1h-4.1L137.5,31.3z
						 M138.8,25.5h-2.4v2.9h2.4c1.2,0,1.7-0.5,1.7-1.4C140.5,26,140,25.5,138.8,25.5z"/>
					<path class="st5" d="M156.8,33.2h-5.1l-1,2.8h-3.5l5-13.7h4.2l5,13.7h-3.5L156.8,33.2z M155.7,30l-1.5-4.3l-1.5,4.3H155.7z"/>
				</g>
			</g>
		</g>
	</g>
	<g id="Layer_2">
		<g class="st1">
			<path class="st2" d="M65.1,57.5V63c0,2-1.4,3-3,3s-2.9-1-2.9-2.9v-0.4h2V63c0,0.9,0.4,1.1,0.9,1.1S63,63.9,63,63v-5.4L65.1,57.5
				L65.1,57.5z"/>
			<path class="st2" d="M74.9,57.5v4.9c0,2.4-1.5,3.5-3.5,3.5S68,64.8,68,62.4v-4.9h2v4.8c0,1.3,0.6,1.7,1.4,1.7s1.4-0.4,1.4-1.7
				v-4.8H74.9z"/>
			<path class="st2" d="M84.9,57.5v8.3h-2.3l-3.1-5.2l0.2,1.8v3.5h-2v-8.3H80l3.1,5.2L82.9,61v-3.5H84.9z"/>
			<path class="st2" d="M87.7,57.5h2v8.3h-2V57.5z"/>
			<path class="st2" d="M100.9,61.7c0,2.4-1.9,4.3-4.3,4.3s-4.3-1.9-4.3-4.3s1.9-4.3,4.3-4.3S100.9,59.2,100.9,61.7z M94.2,61.7
				c0,1.4,1,2.4,2.3,2.4s2.3-1,2.3-2.4s-1-2.4-2.3-2.4C95.2,59.3,94.2,60.3,94.2,61.7z"/>
			<path class="st2" d="M106,62.9h-0.6v2.9h-2v-8.3h3.7c1.8,0,2.8,1,2.8,2.8c0,1.3-0.6,2.1-1.7,2.4l2.2,3.1h-2.5L106,62.9z
				 M106.8,59.5h-1.5v1.7h1.5c0.7,0,1-0.3,1-0.9C107.8,59.8,107.5,59.5,106.8,59.5z"/>
		</g>
		<g class="st1">
			<g>
				<path class="st5" d="M68.5,47.1h-5.1l-1,2.8h-3.5l5-13.6H68l5,13.6h-3.5L68.5,47.1z M67.4,44l-1.5-4.2L64.5,44H67.4z"/>
				<path class="st5" d="M84.6,46.8V50h-8.8V36.3H79v10.5H84.6z"/>
				<path class="st5" d="M100.6,42.4v7.5h-2.8V48c-0.6,1.2-2.1,2.2-4.3,2.2c-3.8,0-6.7-2.9-6.7-7s3-7.1,7.1-7.1c3.4,0,5.9,2,6.6,4.9
					H97c-0.5-1.1-1.7-1.7-3.1-1.7c-2.3,0-3.7,1.6-3.7,4c0,2.2,1.2,3.9,3.6,3.9c1.5,0,2.8-0.7,3.3-2H93v-2.8
					C93,42.4,100.6,42.4,100.6,42.4z"/>
				<path class="st5" d="M108,39.5v2h5.5v3.2H108v2.1h6.1V50h-9.4V36.3h9.4v3.2H108z"/>
				<path class="st5" d="M128.9,46c0,2.6-1.9,4-4.7,4H118V36.3h6.2c2.4,0,4.2,1.2,4.2,3.6c0,1.3-0.6,2.1-1.6,2.7
					C128.2,43.1,128.9,44.4,128.9,46z M123.7,39.5h-2.4v2h2.5c0.7,0,1.1-0.3,1.1-1C125,39.6,124.5,39.5,123.7,39.5z M125.5,45.7
					c0-0.8-0.3-1.1-1.4-1.1h-2.8v2.3h2.8C125.2,46.8,125.5,46.4,125.5,45.7z"/>
				<path class="st5" d="M137.2,45.2h-1v4.7h-3.3V36.3h6.1c2.9,0,4.7,1.7,4.7,4.6c0,2.2-1.1,3.5-2.7,4l3.6,5h-4.1L137.2,45.2z
					 M138.6,39.5h-2.4v2.8h2.4c1.1,0,1.7-0.5,1.7-1.4C140.2,40,139.7,39.5,138.6,39.5z"/>
				<path class="st5" d="M156.4,47.1h-5.1l-1,2.8h-3.5l5-13.6h4.2l5,13.6h-3.5L156.4,47.1z M155.4,44l-1.5-4.2l-1.5,4.2H155.4z"/>
			</g>
		</g>
		
			<linearGradient id="SVGID_3_" gradientUnits="userSpaceOnUse" x1="9.9265" y1="-8.0273" x2="54.4687" y2="36.5148" gradientTransform="matrix(1 0 0 -1 0 76)">
			<stop  offset="0.268" style="stop-color:#E07426"/>
			<stop  offset="0.7182" style="stop-color:#C01B67"/>
		</linearGradient>
		<path class="st6" d="M41.9,48.4c-1.4,0.8-2.8,1.4-4.2,2.1L43,63.4c-1.6,0.2-4.7,0.5-7.1,0.6c-5.9,0-10.2-0.9-12.3-2.7
			c-1-0.8-1.5-1.9-1.5-3.2c0-3.8,4-5.8,11.2-9.2c4.7-2.2,10-4.9,15.2-8.7L46.8,36c-6.6,4.7-9.8,6-15.5,8.6c-3.7,1.7-6.9,3.2-9.4,5.1
			c-3.1,2.4-4.6,5.1-4.5,8.3c0,2.7,1.1,5,3.2,6.7c3,2.5,8,3.8,15,3.8c0.1,0,0.3,0,0.4,0c5.1,0,9.4-0.7,9.5-0.8l4.1-0.8L41.9,48.4z"
			/>
		
			<linearGradient id="SVGID_4_" gradientUnits="userSpaceOnUse" x1="-3.9913" y1="6.4081" x2="40.8495" y2="51.2488" gradientTransform="matrix(1 0 0 -1 0 76)">
			<stop  offset="0.268" style="stop-color:#E07426"/>
			<stop  offset="0.7182" style="stop-color:#C01B67"/>
		</linearGradient>
		<path class="st7" d="M17.1,62.4H7l12.5-30.5l0.1-0.2c0.6-1.5,1.4-3.4,2.5-4.2c0.4-0.3,1.2-0.7,2.7-0.8c1.6,0,2.4,0.5,2.8,0.8
			c1.1,0.8,1.9,2.7,2.5,4.2l0.3,0.7l3.9,9.6c1.1-0.5,2.1-0.9,3.1-1.5c0.4-0.2,0.8-0.4,1.1-0.6l-4-9.8L34.3,30
			c-0.8-2-1.9-4.5-3.9-6.1c-1-0.8-2.7-1.6-5.2-1.8c0,0-0.2,0-0.4,0c-0.1,0-0.4,0-0.4,0c-2.6,0.1-4.2,1-5.2,1.8
			c-2.1,1.6-3.1,4.1-3.9,6.1L0,67.1h21.1c-0.5-0.3-1-0.6-1.4-1C18.5,65.1,17.6,63.8,17.1,62.4z"/>
	</g>
	<g id="Layer_3" class="st1">
		<g>
			
				<linearGradient id="SVGID_5_" gradientUnits="userSpaceOnUse" x1="10" y1="-8.4039" x2="54.9938" y2="36.5899" gradientTransform="matrix(1 0 0 -1 0 76)">
				<stop  offset="0.268" style="stop-color:#E07426"/>
				<stop  offset="0.7182" style="stop-color:#C01B67"/>
			</linearGradient>
			<path class="st8" d="M42.3,48.4c-1.4,0.8-2.9,1.4-4.2,2.1l5.3,13.1c-1.6,0.2-4.8,0.5-7.1,0.6c-5.9,0-10.3-0.9-12.5-2.7
				c-1-0.9-1.5-1.9-1.5-3.2c0-3.8,4.1-5.9,11.3-9.2c4.8-2.2,10.1-4.9,15.4-8.8L47.3,36c-6.7,4.8-9.9,6.1-15.7,8.7
				c-3.7,1.7-7,3.2-9.5,5.1c-3.1,2.4-4.6,5.1-4.6,8.4c0,2.7,1.1,5.1,3.2,6.8c3,2.5,8.1,3.8,15.1,3.8c0.1,0,0.3,0,0.4,0
				c5.2,0,9.5-0.7,9.6-0.8l4.1-0.8L42.3,48.4z"/>
			
				<linearGradient id="SVGID_6_" gradientUnits="userSpaceOnUse" x1="-4.0902" y1="6.2093" x2="41.2052" y2="51.5046" gradientTransform="matrix(1 0 0 -1 0 76)">
				<stop  offset="0.268" style="stop-color:#E07426"/>
				<stop  offset="0.7182" style="stop-color:#C01B67"/>
			</linearGradient>
			<path class="st9" d="M17.2,62.6H7l12.6-30.8l0.1-0.2c0.6-1.5,1.4-3.4,2.5-4.2c0.4-0.3,1.2-0.8,2.8-0.8c1.6,0,2.4,0.5,2.8,0.8
				c1.1,0.8,1.9,2.7,2.5,4.2l0.3,0.7l4,9.7c1.1-0.5,2.1-1,3.1-1.5c0.4-0.2,0.8-0.4,1.1-0.6l-4-9.9l-0.1-0.2c-0.8-2-1.9-4.6-4-6.2
				c-1-0.8-2.7-1.7-5.3-1.8c0,0-0.2,0-0.4,0c-0.1,0-0.4,0-0.4,0c-2.6,0.1-4.3,1-5.3,1.8c-2.1,1.6-3.1,4.1-4,6.2L0,67.3h21.3
				c-0.5-0.3-1-0.7-1.5-1C18.6,65.2,17.7,64,17.2,62.6z"/>
		</g>
		<g>
			<g>
				<g>
					<path class="st5" d="M68.7,33h-5.2l-1,2.9H59l5-13.8h4.2l5,13.8h-3.5L68.7,33z M67.6,29.8l-1.5-4.3l-1.5,4.3H67.6z"/>
					<path class="st5" d="M84.9,32.7v3.2H76V22.1h3.3v10.6H84.9z"/>
					<path class="st5" d="M101.1,28.3v7.6h-2.9V34c-0.6,1.2-2.2,2.2-4.3,2.2c-3.8,0-6.8-3-6.8-7.1s3-7.2,7.1-7.2c3.4,0,6,2,6.7,4.9
						h-3.6c-0.6-1.1-1.7-1.8-3.1-1.8c-2.3,0-3.8,1.6-3.8,4c0,2.2,1.2,4,3.7,4c1.5,0,2.8-0.7,3.4-2h-4.1v-2.8L101.1,28.3L101.1,28.3z
						"/>
					<path class="st5" d="M108.6,25.3v2h5.6v3.2h-5.6v2.2h6.1v3.2h-9.5V22.1h9.5v3.2C114.7,25.3,108.6,25.3,108.6,25.3z"/>
					<path class="st5" d="M129.7,31.8c0,2.6-1.9,4-4.7,4h-6.2V22.1h6.2c2.4,0,4.2,1.2,4.2,3.6c0,1.3-0.6,2.1-1.6,2.7
						C129,28.9,129.7,30.3,129.7,31.8z M124.5,25.3h-2.4v2.1h2.6c0.7,0,1.2-0.3,1.2-1C125.8,25.5,125.3,25.3,124.5,25.3z
						 M126.3,31.5c0-0.8-0.3-1.1-1.4-1.1h-2.8v2.3h2.8C126,32.7,126.3,32.2,126.3,31.5z"/>
					<path class="st5" d="M138.1,31.1h-1v4.8h-3.3V22.1h6.1c2.9,0,4.7,1.7,4.7,4.6c0,2.2-1.1,3.5-2.8,4.1l3.6,5.1h-4.1L138.1,31.1z
						 M139.5,25.3h-2.4v2.9h2.4c1.2,0,1.7-0.5,1.7-1.4C141.2,25.8,140.6,25.3,139.5,25.3z"/>
					<path class="st5" d="M157.5,33h-5.2l-1,2.9h-3.5l5-13.8h4.2l5,13.8h-3.5L157.5,33z M156.4,29.8l-1.5-4.3l-1.5,4.3H156.4z"/>
				</g>
			</g>
		</g>
		<g>
			<path class="st2" d="M64.5,52.1V54h-6.3v-1.9l3.7-4.5h-3.5v-1.9h6.1v1.9l-3.7,4.5H64.5z"/>
			<path class="st2" d="M72.3,52.3h-3.1L68.6,54h-2.2l3-8.4H72l3,8.4h-2.2L72.3,52.3z M71.6,50.4l-0.9-2.6l-0.9,2.6H71.6z"/>
			<path class="st2" d="M83.6,45.7L80.9,54h-2.6l-2.6-8.4h2.2l1.8,5.9l1.8-5.9h2.1V45.7z"/>
			<path class="st2" d="M93.8,49.9c0,2.5-1.9,4.3-4.4,4.3S85,52.3,85,49.9c0-2.5,1.9-4.3,4.4-4.3S93.8,47.4,93.8,49.9z M87.1,49.9
				c0,1.4,1,2.4,2.3,2.4s2.3-1,2.3-2.4s-1-2.4-2.3-2.4C88.1,47.4,87.1,48.5,87.1,49.9z"/>
			<path class="st2" d="M103.7,49.9c0,2.4-1.8,4.2-4.3,4.2h-3.1v-8.4h3.1C101.9,45.7,103.7,47.5,103.7,49.9z M101.7,49.9
				c0-1.3-0.9-2.2-2.2-2.2h-1.1v4.5h1.1C100.8,52.1,101.7,51.2,101.7,49.9z"/>
			<path class="st2" d="M116.9,52.1V54h-6.3v-1.9l3.7-4.5h-3.5v-1.9h6.1v1.9l-3.7,4.5H116.9z"/>
			<path class="st2" d="M124.7,52.3h-3.1L121,54h-2.2l3-8.4h2.6l3,8.4h-2.2L124.7,52.3z M124.1,50.4l-0.9-2.6l-0.9,2.6H124.1z"/>
			<path class="st2" d="M139.4,54l-2.8-3.8V54h-2v-8.4h2v3.6l2.6-3.6h2.5l-3,4L142,54H139.4z"/>
			<path class="st2" d="M151.6,45.7l-2.6,8.4h-2.6l-2.6-8.4h2.2l1.8,5.9l1.8-5.9C149.6,45.7,151.6,45.7,151.6,45.7z"/>
			<path class="st2" d="M158.2,52.3h-3.1l-0.6,1.7h-2.2l3-8.4h2.6l3,8.4h-2.2L158.2,52.3z M157.5,50.4l-0.9-2.6l-0.9,2.6H157.5z"/>
			<path class="st2" d="M168.7,52.1V54h-5.4v-8.4h2V52L168.7,52.1L168.7,52.1z"/>
			<path class="st2" d="M171,45.7h2V54h-2V45.7z"/>
			<path class="st2" d="M182,47.6h-2.3V54h-2v-6.4h-2.3v-1.9h6.6V47.6z"/>
			<path class="st2" d="M186.4,47.6v1.2h3.4v1.9h-3.4V52h3.7v2h-5.8v-8.4h5.8v1.9L186.4,47.6L186.4,47.6z"/>
			<path class="st2" d="M198.6,47.6h-2.3V54h-2v-6.4H192v-1.9h6.6V47.6z"/>
			<path class="st2" d="M208,45.7v4.9c0,2.4-1.5,3.6-3.5,3.6S201,53,201,50.6v-4.9h2.1v4.8c0,1.3,0.6,1.8,1.5,1.8s1.5-0.4,1.5-1.8
				v-4.8H208z"/>
			<path class="st2" d="M67,64.2c0,2.5-1.9,4.3-4.4,4.3s-4.4-1.9-4.4-4.3c0-2.5,1.9-4.3,4.4-4.3S67,61.7,67,64.2z M60.3,64.2
				c0,1.4,1,2.4,2.3,2.4s2.3-1,2.3-2.4s-1-2.4-2.3-2.4C61.3,61.8,60.3,62.8,60.3,64.2z"/>
			<path class="st2" d="M76.1,65.9c0,1.6-1.2,2.5-2.9,2.5h-3.8V60h3.8c1.5,0,2.6,0.7,2.6,2.2c0,0.8-0.3,1.3-1,1.6
				C75.7,64.2,76.1,65,76.1,65.9z M73,62h-1.5v1.3h1.6c0.5,0,0.7-0.2,0.7-0.6C73.8,62.1,73.5,62,73,62z M74.1,65.8
				c0-0.5-0.2-0.7-0.8-0.7h-1.7v1.4h1.7C73.9,66.5,74.1,66.2,74.1,65.8z"/>
			<path class="st2" d="M81.3,65.5h-0.6v2.9h-2V60h3.7c1.8,0,2.9,1.1,2.9,2.8c0,1.3-0.6,2.1-1.7,2.5l2.2,3.1h-2.5L81.3,65.5z
				 M82.1,62h-1.5v1.7h1.5c0.7,0,1-0.3,1-0.9C83.1,62.3,82.8,62,82.1,62z"/>
			<path class="st2" d="M93.4,66.7h-3.1l-0.6,1.7h-2.2l3-8.4h2.6l3,8.4H94L93.4,66.7z M92.7,64.7l-0.9-2.6l-0.9,2.6H92.7z"/>
			<path class="st2" d="M104.4,66.5v1.9h-6.3v-1.9l3.7-4.5h-3.5v-2h6.1v1.9l-3.7,4.5L104.4,66.5L104.4,66.5z"/>
			<path class="st2" d="M115,64.2c0,2.5-1.9,4.3-4.4,4.3s-4.4-1.9-4.4-4.3c0-2.5,1.9-4.3,4.4-4.3S115,61.7,115,64.2z M108.3,64.2
				c0,1.4,1,2.4,2.3,2.4s2.3-1,2.3-2.4s-1-2.4-2.3-2.4C109.3,61.8,108.3,62.8,108.3,64.2z"/>
			<path class="st2" d="M124.3,60l-2.6,8.4h-2.6l-2.6-8.4h2.2l1.8,5.9l1.8-5.9H124.3z"/>
			<path class="st2" d="M130.9,66.7h-3.1l-0.6,1.7H125l3-8.4h2.6l3,8.4h-2.2L130.9,66.7z M130.2,64.7l-0.9-2.6l-0.9,2.6H130.2z"/>
			<path class="st2" d="M143.2,60v8.4h-2.3l-3.1-5.3l0.2,1.8v3.5h-2V60h2.3l3.1,5.3l-0.2-1.8V60H143.2z"/>
			<path class="st2" d="M151.5,60v5.5c0,2-1.4,3-3,3s-3-1-3-3v-0.4h2.1v0.3c0,0.9,0.4,1.1,0.9,1.1s1-0.2,1-1.1V60H151.5z"/>
			<path class="st2" d="M159.2,66.7h-3.1l-0.6,1.7h-2.2l3-8.4h2.6l3,8.4h-2.2L159.2,66.7z M158.6,64.7l-0.9-2.6l-0.9,2.6H158.6z"/>
		</g>
	</g>
</g>
<g id="Layer_2_1_">
	<g>
		<linearGradient id="SVGID_7_" gradientUnits="userSpaceOnUse" x1="10.6219" y1="84.1055" x2="55.1082" y2="39.6191">
			<stop  offset="0.268" style="stop-color:#DF7326"/>
			<stop  offset="0.7182" style="stop-color:#BF1A66"/>
		</linearGradient>
		<path class="st10" d="M42.4,48.5c-1.4,0.8-2.8,1.4-4.2,2.1l5.3,12.9c-1.6,0.2-4.7,0.5-7,0.6c-5.9,0-10.2-0.9-12.3-2.7
			c-1-0.8-1.5-1.9-1.5-3.2c0-3.8,4-5.8,11.2-9.1c4.7-2.2,10-4.9,15.2-8.7l-1.7-4.2c-6.6,4.7-9.8,6-15.5,8.6
			c-3.7,1.7-6.9,3.2-9.4,5.1c-3.1,2.4-4.6,5.1-4.5,8.3c0,2.7,1.1,5,3.1,6.7c3,2.5,8,3.8,14.9,3.8c0.1,0,0.3,0,0.4,0
			c5.1,0,9.3-0.7,9.5-0.8l4.1-0.8L42.4,48.5z"/>
		<linearGradient id="SVGID_8_" gradientUnits="userSpaceOnUse" x1="-3.3832" y1="69.5833" x2="41.4013" y2="24.7988">
			<stop  offset="0.268" style="stop-color:#DF7326"/>
			<stop  offset="0.7182" style="stop-color:#BF1A66"/>
		</linearGradient>
		<path class="st11" d="M17.7,62.4H7.6L20.1,32l0.1-0.2c0.6-1.5,1.4-3.4,2.5-4.2c0.4-0.3,1.2-0.7,2.7-0.8c1.6,0,2.4,0.5,2.8,0.8
			c1.1,0.8,1.8,2.7,2.5,4.2l0.3,0.7l3.9,9.6c1.1-0.5,2.1-0.9,3.1-1.5c0.4-0.2,0.8-0.4,1.1-0.6l-4-9.8L34.9,30
			c-0.8-2-1.9-4.5-3.9-6.1c-1-0.8-2.7-1.6-5.2-1.7c0,0-0.2,0-0.4,0c-0.1,0-0.4,0-0.4,0c-2.6,0.1-4.2,1-5.2,1.7
			c-2.1,1.6-3.1,4.1-3.9,6.1L0.7,67.1h21.1c-0.5-0.3-1-0.6-1.4-1C19.1,65.1,18.2,63.8,17.7,62.4z"/>
	</g>
	<g>
		<g>
			<g>
				<path class="st5" d="M68.6,33.2h-5.1l-1,2.8H59l4.9-13.6h4.2L73.1,36h-3.5L68.6,33.2z M67.5,30.1L66,25.8l-1.5,4.2H67.5z"/>
				<path class="st5" d="M84.6,32.9V36h-8.8V22.4h3.3v10.5H84.6z"/>
				<path class="st5" d="M100.6,28.5V36h-2.8v-1.9c-0.6,1.2-2.1,2.2-4.3,2.2c-3.8,0-6.7-2.9-6.7-7c0-4.1,3-7.1,7.1-7.1
					c3.3,0,5.9,2,6.6,4.9H97c-0.5-1.1-1.7-1.7-3.1-1.7c-2.3,0-3.7,1.6-3.7,4c0,2.2,1.2,3.9,3.6,3.9c1.5,0,2.8-0.7,3.3-2h-4v-2.8
					H100.6z"/>
				<path class="st5" d="M108,25.6v2h5.5v3.2H108v2.1h6.1V36h-9.4V22.4h9.4v3.2H108z"/>
				<path class="st5" d="M128.9,32c0,2.6-1.9,4-4.7,4h-6.2V22.4h6.2c2.4,0,4.2,1.2,4.2,3.6c0,1.3-0.6,2.1-1.6,2.7
					C128.2,29.2,128.9,30.5,128.9,32z M123.8,25.6h-2.4v2h2.5c0.7,0,1.1-0.3,1.1-1C125,25.7,124.6,25.6,123.8,25.6z M125.5,31.8
					c0-0.8-0.3-1.1-1.4-1.1h-2.8v2.3h2.8C125.2,32.9,125.5,32.5,125.5,31.8z"/>
				<path class="st5" d="M137.2,31.3h-1V36h-3.3V22.4h6.1c2.9,0,4.7,1.7,4.7,4.6c0,2.2-1.1,3.5-2.7,4l3.6,5h-4L137.2,31.3z
					 M138.6,25.6h-2.4v2.8h2.4c1.1,0,1.7-0.5,1.7-1.4C140.2,26.1,139.7,25.6,138.6,25.6z"/>
				<path class="st5" d="M156.4,33.2h-5.1l-1,2.8h-3.5l4.9-13.6h4.2l4.9,13.6h-3.5L156.4,33.2z M155.3,30.1l-1.5-4.2l-1.5,4.2H155.3
					z"/>
			</g>
		</g>
	</g>
	<g>
		<path class="st12" d="M65.8,45.7L63.2,54h-2.5l-2.6-8.3h2.1l1.7,5.8l1.7-5.8H65.8z"/>
		<path class="st12" d="M68.1,45.7h2V54h-2V45.7z"/>
		<path class="st12" d="M79.4,51.5c0,2-1.9,2.7-3.2,2.7c-2.5,0-3.5-1.5-3.7-2.9h2c0.2,0.7,0.6,1,1.6,1c0.8,0,1.2-0.3,1.2-0.7
			c0-0.5-0.5-0.5-1.9-0.8c-1.3-0.3-2.7-0.8-2.7-2.5c0-1.8,1.6-2.7,3.2-2.7c2.3,0,3.2,1.3,3.4,2.7h-2c-0.1-0.5-0.4-0.9-1.3-0.9
			c-0.9,0-1.2,0.4-1.2,0.7c0,0.4,0.4,0.4,1.2,0.6C78.3,49.3,79.4,49.8,79.4,51.5z"/>
		<path class="st12" d="M90.1,49.9c0,2.4-1.9,4.3-4.3,4.3c-2.4,0-4.3-1.9-4.3-4.3c0-2.4,1.9-4.3,4.3-4.3
			C88.3,45.6,90.1,47.4,90.1,49.9z M83.5,49.9c0,1.4,1,2.4,2.3,2.4s2.3-1,2.3-2.4s-1-2.4-2.3-2.4S83.5,48.5,83.5,49.9z"/>
		<path class="st12" d="M97.4,54l-2.8-3.7V54h-2v-8.3h2v3.5l2.6-3.5h2.5l-3,4l3.2,4.3H97.4z"/>
		<path class="st12" d="M110.5,49.9c0,2.4-1.9,4.3-4.3,4.3c-2.4,0-4.3-1.9-4.3-4.3c0-2.4,1.9-4.3,4.3-4.3
			C108.6,45.6,110.5,47.4,110.5,49.9z M103.9,49.9c0,1.4,1,2.4,2.3,2.4s2.3-1,2.3-2.4s-1-2.4-2.3-2.4S103.9,48.5,103.9,49.9z"/>
		<path class="st12" d="M65.6,59.9l0,4.9c0,2.4-1.5,3.5-3.5,3.5c-2,0-3.5-1.2-3.5-3.5l0-4.9h2v4.8c0,1.3,0.6,1.7,1.4,1.7
			c0.9,0,1.4-0.4,1.4-1.7v-4.8H65.6z"/>
		<path class="st12" d="M68.1,64.1c0-2.4,1.8-4.3,4.3-4.3c2,0,3.6,1.3,4,3.1h-2.2c-0.3-0.7-1-1.2-1.9-1.2c-1.4,0-2.3,1-2.3,2.4
			c0,1.4,0.9,2.4,2.3,2.4c0.9,0,1.5-0.4,1.9-1.2h2.2c-0.4,1.8-2,3.1-4,3.1C69.9,68.3,68.1,66.5,68.1,64.1z M72.2,59l-1.9-1.9
			l1.1-1.1l0.9,1l0.9-1l1.1,1.1L72.2,59z"/>
		<path class="st12" d="M78.8,59.9h2v8.3h-2V59.9z"/>
		<path class="st12" d="M89.1,66.3v1.9h-5.4v-8.3h2v6.4H89.1z"/>
		<path class="st12" d="M91.4,59.9h2v8.3h-2V59.9z"/>
		<path class="st12" d="M102.6,65.7c0,2-1.9,2.7-3.2,2.7c-2.5,0-3.5-1.5-3.7-2.9h2c0.2,0.7,0.6,1,1.6,1c0.8,0,1.2-0.3,1.2-0.7
			c0-0.5-0.5-0.5-1.9-0.8c-1.3-0.3-2.7-0.8-2.7-2.5c0-1.8,1.6-2.7,3.2-2.7c2.3,0,3.2,1.3,3.4,2.7h-2c-0.1-0.5-0.4-0.9-1.3-0.9
			c-0.9,0-1.2,0.4-1.2,0.7c0,0.4,0.4,0.4,1.2,0.6C101.5,63.5,102.6,64,102.6,65.7z M99.2,59l-1.9-1.9l1.1-1.1l0.9,1l0.9-1l1.1,1.1
			L99.2,59z"/>
		<path class="st12" d="M111.1,61.8h-2.3v6.4h-2v-6.4h-2.2v-1.9h6.5V61.8z"/>
		<path class="st12" d="M115.4,61.8v1.2h3.4V65h-3.4v1.3h3.7v1.9h-5.7v-8.3h5.7v1.9H115.4z"/>
	</g>
</g>
<g id="Layer_3_1_" class="st0">
	<g class="st1">
		<linearGradient id="SVGID_9_" gradientUnits="userSpaceOnUse" x1="10.3165" y1="84.3158" x2="54.5972" y2="40.035">
			<stop  offset="0.268" style="stop-color:#DF7326"/>
			<stop  offset="0.7182" style="stop-color:#BF1A66"/>
		</linearGradient>
		<path class="st13" d="M42,48.8c-1.4,0.8-2.8,1.4-4.2,2.1l5.2,12.9c-1.6,0.2-4.7,0.5-7,0.5c-5.8,0-10.2-0.9-12.3-2.7
			c-1-0.8-1.5-1.8-1.5-3.2c0-3.7,4-5.8,11.2-9.1c4.7-2.2,10-4.8,15.2-8.7l-1.7-4.1c-6.6,4.7-9.7,6-15.4,8.6
			c-3.7,1.7-6.9,3.2-9.3,5.1c-3.1,2.3-4.5,5.1-4.5,8.3c0,2.7,1.1,5,3.1,6.7c3,2.5,8,3.7,14.9,3.7c0.1,0,0.3,0,0.4,0
			c5.1,0,9.3-0.7,9.5-0.8l4.1-0.8L42,48.8z"/>
		<linearGradient id="SVGID_10_" gradientUnits="userSpaceOnUse" x1="-3.6239" y1="69.8607" x2="40.9536" y2="25.2832">
			<stop  offset="0.268" style="stop-color:#DF7326"/>
			<stop  offset="0.7182" style="stop-color:#BF1A66"/>
		</linearGradient>
		<path class="st14" d="M17.3,62.8h-10l12.4-30.3l0.1-0.2c0.6-1.5,1.4-3.3,2.5-4.2c0.4-0.3,1.2-0.7,2.7-0.8c1.5,0,2.4,0.5,2.8,0.8
			c1.1,0.8,1.8,2.7,2.5,4.2l0.3,0.7l3.9,9.5c1.1-0.5,2-0.9,3.1-1.5c0.4-0.2,0.8-0.4,1.1-0.6l-4-9.7l-0.1-0.2c-0.8-2-1.9-4.5-3.9-6.1
			c-1-0.8-2.6-1.6-5.2-1.7c0,0-0.2,0-0.4,0c-0.1,0-0.4,0-0.4,0c-2.5,0.1-4.2,1-5.2,1.7c-2,1.6-3.1,4.1-3.9,6.1L0.4,67.4h21
			c-0.5-0.3-1-0.6-1.4-1C18.7,65.4,17.8,64.1,17.3,62.8z"/>
	</g>
	<g class="st1">
		<g>
			<g>
				<path class="st5" d="M68,33.7h-5.1l-1,2.8h-3.5l4.9-13.6h4.1l4.9,13.6H69L68,33.7z M66.9,30.5l-1.5-4.2L64,30.5H66.9z"/>
				<path class="st5" d="M84,33.3v3.1h-8.8V22.9h3.3v10.4H84z"/>
				<path class="st5" d="M99.9,29v7.5h-2.8v-1.9c-0.6,1.2-2.1,2.2-4.3,2.2c-3.7,0-6.7-2.9-6.7-7c0-4.1,3-7.1,7-7.1
					c3.3,0,5.9,2,6.6,4.9h-3.5c-0.5-1.1-1.6-1.7-3.1-1.7c-2.2,0-3.7,1.6-3.7,4c0,2.2,1.2,3.9,3.6,3.9c1.5,0,2.8-0.7,3.3-2h-4V29
					H99.9z"/>
				<path class="st5" d="M107.2,26v2h5.5v3.1h-5.5v2.1h6v3.1H104V22.9h9.3V26H107.2z"/>
				<path class="st5" d="M128,32.5c0,2.6-1.9,4-4.6,4h-6.1V22.9h6.1c2.4,0,4.2,1.2,4.2,3.6c0,1.3-0.6,2.1-1.6,2.7
					C127.4,29.6,128,31,128,32.5z M122.9,26h-2.4v2h2.5c0.7,0,1.1-0.3,1.1-1C124.2,26.2,123.7,26,122.9,26z M124.7,32.2
					c0-0.8-0.3-1.1-1.4-1.1h-2.8v2.2h2.8C124.4,33.3,124.7,32.9,124.7,32.2z"/>
				<path class="st5" d="M136.3,31.8h-1v4.7H132V22.9h6c2.9,0,4.6,1.7,4.6,4.5c0,2.2-1,3.5-2.7,4l3.6,5h-4L136.3,31.8z M137.7,26
					h-2.4v2.8h2.4c1.1,0,1.7-0.5,1.7-1.4C139.3,26.5,138.8,26,137.7,26z"/>
				<path class="st5" d="M155.4,33.7h-5.1l-1,2.8h-3.5l4.9-13.6h4.1l4.9,13.6h-3.5L155.4,33.7z M154.4,30.5l-1.5-4.2l-1.5,4.2H154.4
					z"/>
			</g>
		</g>
	</g>
	<g class="st1">
		<path class="st12" d="M65.4,50.2c0,2.3-1.8,4.1-4.2,4.1h-3.1v-8.2h3.1C63.6,46.1,65.4,47.9,65.4,50.2z M63.4,50.2
			c0-1.3-0.9-2.2-2.2-2.2h-1.1v4.4h1.1C62.5,52.4,63.4,51.5,63.4,50.2z"/>
		<path class="st12" d="M70.5,51.5h-0.6v2.9h-2v-8.2h3.7c1.7,0,2.8,1,2.8,2.8c0,1.3-0.6,2.1-1.6,2.4l2.2,3h-2.4L70.5,51.5z M71.3,48
			h-1.4v1.7h1.4c0.7,0,1-0.3,1-0.8C72.3,48.3,72,48,71.3,48z"/>
		<path class="st12" d="M83,52.4v1.9h-6.2v-1.9l3.7-4.4h-3.5v-1.9h6l0,1.9l-3.7,4.4H83z M79.9,45.2L78,43.3l1-1l0.8,1l0.8-1l1,1
			L79.9,45.2z"/>
		<path class="st12" d="M90.6,52.6h-3.1L87,54.3h-2.1l3-8.2h2.5l3,8.2h-2.1L90.6,52.6z M90,50.7l-0.9-2.6l-0.9,2.6H90z"/>
		<path class="st12" d="M102.8,46.1l-2.6,8.2h-2.5l-2.6-8.2h2.1l1.7,5.8l1.7-5.8H102.8z"/>
		<path class="st12" d="M112.3,46.1v8.2H110l-3.1-5.2l0.2,1.7v3.4h-2v-8.2h2.3l3.1,5.2l-0.2-1.7v-3.4H112.3z"/>
		<path class="st12" d="M120.3,52.6h-3.1l-0.6,1.7h-2.1l3-8.2h2.5l3,8.2h-2.1L120.3,52.6z M119.6,50.7l-0.9-2.6l-0.9,2.6H119.6z"/>
		<path class="st12" d="M66.3,60.2v8.2h-2V63l-2.1,3.1h-0.2L60,63v5.4h-2v-8.2h2.3l1.9,2.8l1.9-2.8H66.3z"/>
		<path class="st12" d="M74.4,66.8h-3.1l-0.6,1.7h-2.1l3-8.2h2.5l3,8.2H75L74.4,66.8z M73.8,64.9l-0.9-2.6L72,64.9H73.8z"/>
		<path class="st12" d="M85.4,62.1h-2.2v6.3h-2v-6.3h-2.2v-1.9h6.5V62.1z"/>
		<path class="st12" d="M94.6,60.2l0,4.9c0,2.3-1.5,3.5-3.5,3.5s-3.5-1.2-3.5-3.5l0-4.9h2V65c0,1.3,0.6,1.7,1.4,1.7s1.4-0.4,1.4-1.7
			v-4.8H94.6z"/>
		<path class="st12" d="M100,65.6h-0.6v2.9h-2v-8.2h3.7c1.7,0,2.8,1,2.8,2.8c0,1.3-0.6,2.1-1.6,2.4l2.2,3H102L100,65.6z M100.9,62.1
			h-1.4v1.7h1.4c0.7,0,1-0.3,1-0.8C101.9,62.4,101.5,62.1,100.9,62.1z"/>
		<path class="st12" d="M112,66.8h-3.1l-0.6,1.7h-2.1l3-8.2h2.5l3,8.2h-2.1L112,66.8z M111.3,64.9l-0.9-2.6l-0.9,2.6H111.3z"/>
	</g>
</g>
<g id="Layer_4" class="st0">
	<g class="st1">
		<linearGradient id="SVGID_11_" gradientUnits="userSpaceOnUse" x1="9.7933" y1="84.3803" x2="53.9329" y2="40.2408">
			<stop  offset="0.268" style="stop-color:#DF7326"/>
			<stop  offset="0.7182" style="stop-color:#BF1A66"/>
		</linearGradient>
		<path class="st15" d="M41.4,49c-1.4,0.8-2.8,1.4-4.2,2.1l5.2,12.8c-1.6,0.2-4.7,0.5-7,0.5c-5.8,0-10.2-0.9-12.2-2.6
			c-1-0.8-1.5-1.8-1.5-3.2c0-3.7,4-5.8,11.1-9.1c4.7-2.2,9.9-4.8,15.1-8.7l-1.7-4.1c-6.6,4.7-9.7,5.9-15.4,8.6
			c-3.7,1.7-6.8,3.2-9.3,5c-3.1,2.3-4.5,5-4.5,8.3c0,2.7,1.1,5,3.1,6.7c2.9,2.5,7.9,3.7,14.8,3.7c0.1,0,0.3,0,0.4,0
			c5.1,0,9.3-0.7,9.5-0.8l4.1-0.8L41.4,49z"/>
		<linearGradient id="SVGID_12_" gradientUnits="userSpaceOnUse" x1="-4.1026" y1="69.9714" x2="40.3328" y2="25.536">
			<stop  offset="0.268" style="stop-color:#DF7326"/>
			<stop  offset="0.7182" style="stop-color:#BF1A66"/>
		</linearGradient>
		<path class="st16" d="M16.8,62.9h-10l12.4-30.2l0.1-0.2c0.6-1.5,1.4-3.3,2.5-4.2c0.4-0.3,1.2-0.7,2.7-0.8c1.5,0,2.4,0.5,2.7,0.8
			c1.1,0.8,1.8,2.7,2.5,4.2l0.3,0.7l3.9,9.5c1.1-0.5,2-0.9,3-1.4c0.4-0.2,0.8-0.4,1.1-0.6l-4-9.7l-0.1-0.2c-0.8-2-1.9-4.5-3.9-6.1
			c-1-0.8-2.6-1.6-5.2-1.7c0,0-0.2,0-0.4,0c-0.1,0-0.4,0-0.4,0c-2.5,0.1-4.2,1-5.2,1.7c-2,1.6-3.1,4.1-3.9,6L-0.1,67.5h20.9
			c-0.5-0.3-1-0.6-1.4-1C18.2,65.5,17.3,64.3,16.8,62.9z"/>
	</g>
	<g class="st1">
		<g>
			<g>
				<path class="st5" d="M67.3,47.9h-5.1l-1,2.8h-3.5l4.9-13.5h4.1l4.9,13.5h-3.5L67.3,47.9z M66.2,44.8l-1.4-4.2l-1.4,4.2H66.2z"/>
				<path class="st5" d="M83.2,47.6v3.1h-8.8V37.2h3.3v10.4H83.2z"/>
				<path class="st5" d="M99.1,43.3v7.5h-2.8v-1.9C95.7,50,94.2,51,92.1,51c-3.7,0-6.7-2.9-6.7-7c0-4.1,3-7,7-7c3.3,0,5.9,2,6.6,4.8
					h-3.5c-0.5-1.1-1.6-1.7-3.1-1.7c-2.2,0-3.7,1.6-3.7,4c0,2.2,1.2,3.9,3.6,3.9c1.5,0,2.8-0.7,3.3-2h-4v-2.7H99.1z"/>
				<path class="st5" d="M106.4,40.3v2h5.5v3.1h-5.5v2.1h6v3.1h-9.3V37.2h9.3v3.1H106.4z"/>
				<path class="st5" d="M127.1,46.8c0,2.5-1.9,4-4.6,4h-6.1V37.2h6.1c2.4,0,4.2,1.2,4.2,3.6c0,1.3-0.6,2.1-1.6,2.6
					C126.5,43.9,127.1,45.3,127.1,46.8z M122.1,40.3h-2.4v2h2.5c0.7,0,1.1-0.3,1.1-1C123.3,40.5,122.8,40.3,122.1,40.3z M123.8,46.5
					c0-0.8-0.3-1.1-1.4-1.1h-2.7v2.2h2.7C123.5,47.6,123.8,47.2,123.8,46.5z"/>
				<path class="st5" d="M135.4,46h-1v4.7h-3.3V37.2h6c2.9,0,4.6,1.7,4.6,4.5c0,2.2-1,3.5-2.7,4l3.6,5h-4L135.4,46z M136.7,40.3
					h-2.4v2.8h2.4c1.1,0,1.7-0.5,1.7-1.4C138.4,40.8,137.8,40.3,136.7,40.3z"/>
				<path class="st5" d="M154.5,47.9h-5.1l-1,2.8H145l4.9-13.5h4.1l4.9,13.5h-3.5L154.5,47.9z M153.4,44.8l-1.4-4.2l-1.4,4.2H153.4z
					"/>
			</g>
		</g>
	</g>
	<g class="st1">
		<path class="st12" d="M59.4,62.3v1.2h3.3v1.9h-3.3v1.3h3.7v1.9h-5.7v-8.2h5.7v1.9H59.4z"/>
		<path class="st12" d="M70.3,68.6L68.8,66l-1.5,2.6H65l2.6-4.3l-2.5-3.9h2.4l1.4,2.4l1.4-2.4h2.4L70,64.4l2.6,4.1H70.3z"/>
		<path class="st12" d="M81.4,63.2c0,1.8-1.2,2.9-3,2.9h-1.5v2.5h-2v-8.2h3.5C80.2,60.4,81.4,61.3,81.4,63.2z M79.4,63.2
			c0-0.6-0.3-0.9-1-0.9h-1.4v1.9h1.4C79.1,64.1,79.4,63.8,79.4,63.2z"/>
	</g>
</g>
<g id="Layer_5" class="st0">
	<g class="st1">
		<linearGradient id="SVGID_13_" gradientUnits="userSpaceOnUse" x1="10.0396" y1="84.2233" x2="53.5755" y2="40.6874">
			<stop  offset="0.268" style="stop-color:#DF7326"/>
			<stop  offset="0.7182" style="stop-color:#BF1A66"/>
		</linearGradient>
		<path class="st17" d="M41.2,49.3c-1.4,0.8-2.8,1.4-4.1,2L42.2,64c-1.6,0.2-4.6,0.5-6.9,0.5c-5.7,0-10-0.9-12.1-2.6
			c-1-0.8-1.4-1.8-1.5-3.1c0-3.7,3.9-5.7,11-8.9c4.6-2.1,9.8-4.8,14.9-8.5L46,37.3c-6.5,4.6-9.6,5.9-15.2,8.4
			c-3.6,1.7-6.8,3.1-9.2,5c-3,2.3-4.5,5-4.4,8.2c0,2.6,1.1,4.9,3.1,6.6c2.9,2.4,7.8,3.7,14.6,3.7c0.1,0,0.3,0,0.4,0
			c5,0,9.1-0.7,9.3-0.7l4-0.8L41.2,49.3z"/>
		<linearGradient id="SVGID_14_" gradientUnits="userSpaceOnUse" x1="-3.6662" y1="70.0114" x2="40.1614" y2="26.1837">
			<stop  offset="0.268" style="stop-color:#DF7326"/>
			<stop  offset="0.7182" style="stop-color:#BF1A66"/>
		</linearGradient>
		<path class="st18" d="M16.9,63H7.1l12.2-29.8l0.1-0.2c0.6-1.5,1.4-3.3,2.4-4.1c0.4-0.3,1.2-0.7,2.7-0.8c1.5,0,2.3,0.5,2.7,0.8
			c1.1,0.8,1.8,2.6,2.4,4.1l0.3,0.7l3.8,9.3c1-0.5,2-0.9,3-1.4c0.4-0.2,0.8-0.4,1.1-0.6l-3.9-9.6l-0.1-0.2c-0.8-2-1.8-4.4-3.8-6
			c-1-0.7-2.6-1.6-5.1-1.7c0,0-0.2,0-0.4,0c-0.1,0-0.4,0-0.4,0c-2.5,0.1-4.2,1-5.1,1.7c-2,1.6-3,4-3.8,6L0.3,67.6h20.6
			c-0.5-0.3-1-0.6-1.4-1C18.3,65.6,17.4,64.4,16.9,63z"/>
	</g>
	<g class="st1">
		<g>
			<g>
				<path class="st5" d="M66.8,34.4h-5l-1,2.8h-3.4l4.8-13.3h4.1l4.8,13.3h-3.4L66.8,34.4z M65.7,31.3l-1.4-4.2l-1.4,4.2H65.7z"/>
				<path class="st5" d="M82.5,34.1v3.1h-8.6V23.8h3.2v10.2H82.5z"/>
				<path class="st5" d="M98.1,29.8v7.4h-2.8v-1.9c-0.6,1.2-2.1,2.1-4.2,2.1c-3.7,0-6.6-2.9-6.6-6.9c0-4,2.9-7,6.9-7
					c3.3,0,5.8,2,6.5,4.8h-3.5c-0.5-1.1-1.6-1.7-3-1.7c-2.2,0-3.6,1.6-3.6,3.9c0,2.1,1.2,3.8,3.6,3.8c1.5,0,2.7-0.6,3.3-1.9h-4v-2.7
					H98.1z"/>
				<path class="st5" d="M105.3,26.9v2h5.4V32h-5.4v2.1h5.9v3.1h-9.2V23.8h9.2v3.1H105.3z"/>
				<path class="st5" d="M125.8,33.3c0,2.5-1.9,3.9-4.6,3.9h-6V23.8h6c2.3,0,4.1,1.1,4.1,3.5c0,1.3-0.6,2.1-1.6,2.6
					C125.1,30.5,125.8,31.8,125.8,33.3z M120.8,26.9h-2.3v2h2.5c0.7,0,1.1-0.3,1.1-1C122,27.1,121.5,26.9,120.8,26.9z M122.5,33
					c0-0.7-0.3-1.1-1.4-1.1h-2.7v2.2h2.7C122.2,34.1,122.5,33.7,122.5,33z"/>
				<path class="st5" d="M133.9,32.6h-1v4.6h-3.2V23.8h5.9c2.8,0,4.6,1.7,4.6,4.5c0,2.1-1,3.4-2.7,3.9l3.5,4.9h-4L133.9,32.6z
					 M135.2,26.9h-2.3v2.8h2.3c1.1,0,1.7-0.5,1.7-1.4C136.9,27.4,136.3,26.9,135.2,26.9z"/>
				<path class="st5" d="M152.7,34.4h-5l-1,2.8h-3.4l4.8-13.3h4.1l4.8,13.3h-3.4L152.7,34.4z M151.7,31.3l-1.4-4.2l-1.4,4.2H151.7z"
					/>
			</g>
		</g>
	</g>
	<g class="st1">
		<path class="st12" d="M63.4,49.4c0,1.8-1.2,2.8-2.9,2.8h-1.5v2.5h-2v-8.1h3.5C62.2,46.7,63.4,47.6,63.4,49.4z M61.4,49.5
			c0-0.6-0.3-0.9-1-0.9h-1.4v1.9h1.4C61,50.4,61.4,50.1,61.4,49.5z"/>
		<path class="st12" d="M68.4,51.9h-0.6v2.8h-2v-8.1h3.6c1.7,0,2.8,1,2.8,2.7c0,1.3-0.6,2.1-1.6,2.4l2.1,3h-2.4L68.4,51.9z
			 M69.2,48.5h-1.4v1.7h1.4c0.7,0,1-0.3,1-0.8C70.2,48.8,69.8,48.5,69.2,48.5z"/>
		<path class="st12" d="M82.7,50.7c0,2.4-1.8,4.2-4.2,4.2s-4.2-1.8-4.2-4.2c0-2.4,1.8-4.2,4.2-4.2S82.7,48.3,82.7,50.7z M76.2,50.7
			c0,1.4,0.9,2.3,2.2,2.3c1.3,0,2.2-1,2.2-2.3c0-1.4-0.9-2.3-2.2-2.3C77.2,48.4,76.2,49.4,76.2,50.7z"/>
		<path class="st12" d="M87.1,48.5v1.3h3.3v1.9h-3.3v3.1h-2v-8.1h5.6v1.9H87.1z"/>
		<path class="st12" d="M95.1,48.5v1.2h3.3v1.9h-3.3v1.3h3.6v1.9h-5.6v-8.1h5.6v1.9H95.1z"/>
		<path class="st12" d="M107.3,52.3c0,2-1.8,2.6-3.1,2.6c-2.5,0-3.4-1.4-3.6-2.8h2c0.2,0.7,0.5,1,1.6,1c0.8,0,1.2-0.3,1.2-0.7
			c0-0.5-0.5-0.5-1.8-0.8c-1.3-0.3-2.7-0.8-2.7-2.4c0-1.8,1.6-2.6,3.1-2.6c2.3,0,3.2,1.3,3.3,2.7h-2c-0.1-0.5-0.4-0.8-1.3-0.8
			c-0.9,0-1.1,0.4-1.1,0.7c0,0.4,0.4,0.4,1.2,0.6C106.3,50.1,107.3,50.7,107.3,52.3z"/>
		<path class="st12" d="M116.1,52.3c0,2-1.8,2.6-3.1,2.6c-2.5,0-3.4-1.4-3.6-2.8h2c0.2,0.7,0.5,1,1.6,1c0.8,0,1.2-0.3,1.2-0.7
			c0-0.5-0.5-0.5-1.8-0.8c-1.3-0.3-2.7-0.8-2.7-2.4c0-1.8,1.6-2.6,3.1-2.6c2.3,0,3.2,1.3,3.3,2.7h-2c-0.1-0.5-0.4-0.8-1.3-0.8
			c-0.9,0-1.1,0.4-1.1,0.7c0,0.4,0.4,0.4,1.2,0.6C115.1,50.1,116.1,50.7,116.1,52.3z"/>
		<path class="st12" d="M118.5,46.7h2v8.1h-2V46.7z"/>
		<path class="st12" d="M131.4,50.7c0,2.4-1.8,4.2-4.2,4.2c-2.4,0-4.2-1.8-4.2-4.2c0-2.4,1.8-4.2,4.2-4.2
			C129.5,46.5,131.4,48.3,131.4,50.7z M124.9,50.7c0,1.4,0.9,2.3,2.2,2.3c1.3,0,2.2-1,2.2-2.3c0-1.4-0.9-2.3-2.2-2.3
			C125.8,48.4,124.9,49.4,124.9,50.7z"/>
		<path class="st12" d="M140.8,46.7v8.1h-2.2l-3-5.1l0.2,1.7v3.4h-2v-8.1h2.2l3,5.1l-0.2-1.7v-3.4H140.8z"/>
		<path class="st12" d="M148.7,53.1h-3l-0.6,1.7H143l2.9-8.1h2.5l2.9,8.1h-2.1L148.7,53.1z M148.1,51.2l-0.9-2.5l-0.9,2.5H148.1z"/>
		<path class="st12" d="M158.9,52.9v1.9h-5.3v-8.1h2v6.2H158.9z"/>
		<path class="st12" d="M62.8,62.4h-2.2v6.2h-2v-6.2h-2.2v-1.9h6.4V62.4z"/>
		<path class="st12" d="M67.7,65.8h-0.6v2.8h-2v-8.1h3.6c1.7,0,2.8,1,2.8,2.7c0,1.3-0.6,2.1-1.6,2.4l2.1,3h-2.4L67.7,65.8z
			 M68.5,62.4h-1.4v1.7h1.4c0.7,0,1-0.3,1-0.8C69.5,62.7,69.1,62.4,68.5,62.4z"/>
		<path class="st12" d="M79.4,67h-3l-0.6,1.7h-2.1l2.9-8.1h2.5l2.9,8.1H80L79.4,67z M78.8,65.1l-0.9-2.5L77,65.1H78.8z"/>
		<path class="st12" d="M84.3,60.5h2v8.1h-2V60.5z"/>
		<path class="st12" d="M96.1,60.5v8.1h-2.2l-3-5.1l0.2,1.7v3.4h-2v-8.1h2.2l3,5.1l-0.2-1.7v-3.4H96.1z"/>
		<path class="st12" d="M98.8,60.5h2v8.1h-2V60.5z"/>
		<path class="st12" d="M110.6,60.5v8.1h-2.2l-3-5.1l0.2,1.7v3.4h-2v-8.1h2.2l3,5.1l-0.2-1.7v-3.4H110.6z"/>
		<path class="st12" d="M121.2,64.2v4.5h-1.7v-1.1c-0.4,0.7-1.3,1.3-2.5,1.3c-2.2,0-4-1.7-4-4.2c0-2.4,1.8-4.2,4.2-4.2
			c2,0,3.5,1.2,3.9,2.9H119c-0.3-0.6-1-1-1.8-1c-1.3,0-2.2,0.9-2.2,2.4c0,1.3,0.7,2.3,2.2,2.3c0.9,0,1.7-0.4,2-1.2h-2.4v-1.6H121.2z
			"/>
		<path class="st12" d="M130.2,66.2c0,2-1.8,2.6-3.1,2.6c-2.5,0-3.4-1.4-3.6-2.8h2c0.2,0.7,0.5,1,1.6,1c0.8,0,1.2-0.3,1.2-0.7
			c0-0.5-0.5-0.5-1.8-0.8c-1.3-0.3-2.7-0.8-2.7-2.4c0-1.8,1.6-2.6,3.1-2.6c2.3,0,3.2,1.3,3.3,2.7h-2c-0.1-0.5-0.4-0.8-1.3-0.8
			c-0.9,0-1.1,0.4-1.1,0.7c0,0.4,0.4,0.4,1.2,0.6C129.1,64,130.2,64.5,130.2,66.2z"/>
	</g>
</g>
<g id="Layer_6" class="st0">
	<g class="st1">
		<g>
			<path class="st5" d="M68,48.2h-5L62,51h-3.5l4.9-13.4h4.1L72.4,51h-3.5L68,48.2z M66.9,45.1l-1.4-4.2L64,45.1H66.9z"/>
			<path class="st5" d="M83.8,47.9V51h-8.7V37.6h3.3v10.3H83.8z"/>
			<path class="st5" d="M99.5,43.6V51h-2.8v-1.9c-0.6,1.2-2.1,2.1-4.2,2.1c-3.7,0-6.6-2.9-6.6-6.9c0-4,2.9-7,7-7
				c3.3,0,5.8,2,6.5,4.8h-3.5c-0.5-1.1-1.6-1.7-3-1.7c-2.2,0-3.7,1.6-3.7,3.9c0,2.1,1.2,3.9,3.6,3.9c1.5,0,2.7-0.7,3.3-1.9h-4v-2.7
				H99.5z"/>
			<path class="st5" d="M106.8,40.7v2h5.4v3.1h-5.4v2.1h6V51h-9.2V37.6h9.2v3.1H106.8z"/>
			<path class="st5" d="M127.3,47.1c0,2.5-1.9,3.9-4.6,3.9h-6.1V37.6h6.1c2.3,0,4.1,1.2,4.1,3.5c0,1.3-0.6,2.1-1.6,2.6
				C126.7,44.2,127.3,45.6,127.3,47.1z M122.3,40.7H120v2h2.5c0.7,0,1.1-0.3,1.1-1C123.6,40.9,123.1,40.7,122.3,40.7z M124,46.8
				c0-0.7-0.3-1.1-1.4-1.1H120v2.2h2.7C123.8,47.9,124,47.5,124,46.8z"/>
			<path class="st5" d="M135.5,46.3h-1V51h-3.3V37.6h6c2.8,0,4.6,1.7,4.6,4.5c0,2.1-1,3.4-2.7,4l3.5,5h-4L135.5,46.3z M136.9,40.7
				h-2.4v2.8h2.4c1.1,0,1.7-0.5,1.7-1.4C138.6,41.2,138,40.7,136.9,40.7z"/>
			<path class="st5" d="M154.5,48.2h-5l-1,2.8h-3.5l4.9-13.4h4.1l4.9,13.4h-3.5L154.5,48.2z M153.4,45.1l-1.4-4.2l-1.4,4.2H153.4z"
				/>
		</g>
	</g>
	<g class="st1">
		<linearGradient id="SVGID_15_" gradientUnits="userSpaceOnUse" x1="10.4176" y1="84.624" x2="54.2425" y2="40.7992">
			<stop  offset="0.268" style="stop-color:#DF7326"/>
			<stop  offset="0.7182" style="stop-color:#BF1A66"/>
		</linearGradient>
		<path class="st19" d="M41.8,49.5c-1.4,0.8-2.8,1.4-4.1,2l5.2,12.7c-1.6,0.2-4.6,0.5-6.9,0.5c-5.8,0-10.1-0.9-12.1-2.6
			c-1-0.8-1.5-1.8-1.5-3.1c0-3.7,4-5.7,11-9c4.6-2.1,9.9-4.8,15-8.6l-1.7-4.1c-6.5,4.6-9.6,5.9-15.3,8.5c-3.6,1.7-6.8,3.1-9.2,5
			c-3,2.3-4.5,5-4.5,8.2c0,2.6,1.1,4.9,3.1,6.6c2.9,2.5,7.9,3.7,14.7,3.7c0.1,0,0.3,0,0.4,0c5,0,9.2-0.7,9.4-0.8l4-0.8L41.8,49.5z"
			/>
		<linearGradient id="SVGID_16_" gradientUnits="userSpaceOnUse" x1="-3.3792" y1="70.3178" x2="40.7394" y2="26.1992">
			<stop  offset="0.268" style="stop-color:#DF7326"/>
			<stop  offset="0.7182" style="stop-color:#BF1A66"/>
		</linearGradient>
		<path class="st20" d="M17.4,63.3H7.4l12.3-30l0.1-0.2c0.6-1.5,1.4-3.3,2.4-4.1c0.4-0.3,1.2-0.7,2.7-0.8c1.5,0,2.4,0.5,2.7,0.8
			c1.1,0.8,1.8,2.7,2.4,4.1l0.3,0.7l3.8,9.4c1.1-0.5,2-0.9,3-1.4c0.4-0.2,0.8-0.4,1.1-0.6l-3.9-9.6l-0.1-0.2c-0.8-2-1.8-4.4-3.9-6
			c-1-0.7-2.6-1.6-5.1-1.7c0,0-0.2,0-0.4,0c-0.1,0-0.4,0-0.4,0c-2.5,0.1-4.2,1-5.1,1.7c-2,1.6-3,4-3.9,6l-15,36.5h20.7
			c-0.5-0.3-1-0.6-1.4-1C18.7,65.9,17.9,64.7,17.4,63.3z"/>
	</g>
	<g class="st1">
		<path class="st12" d="M59,64.6c0-2.4,1.8-4.2,4.2-4.2c2,0,3.5,1.3,4,3h-2.1c-0.3-0.7-1-1.1-1.9-1.1c-1.4,0-2.2,1-2.2,2.3
			c0,1.4,0.9,2.3,2.2,2.3c0.9,0,1.5-0.4,1.9-1.1h2.1c-0.4,1.8-2,3-4,3C60.8,68.8,59,67,59,64.6z"/>
		<path class="st12" d="M77.8,64.6c0,2.4-1.9,4.2-4.3,4.2c-2.4,0-4.3-1.8-4.3-4.2c0-2.4,1.9-4.2,4.3-4.2
			C76,60.3,77.8,62.2,77.8,64.6z M71.3,64.6c0,1.4,1,2.3,2.3,2.3c1.3,0,2.3-1,2.3-2.3c0-1.4-1-2.3-2.3-2.3
			C72.2,62.2,71.3,63.2,71.3,64.6z"/>
		<path class="st12" d="M87.3,60.5v8.2h-2.2L82,63.5l0.2,1.7v3.4h-2v-8.2h2.2l3.1,5.1l-0.2-1.7v-3.4H87.3z"/>
		<path class="st12" d="M96.4,66.2c0,2-1.8,2.6-3.1,2.6c-2.5,0-3.4-1.5-3.6-2.8h2c0.2,0.7,0.5,1,1.6,1c0.8,0,1.2-0.3,1.2-0.7
			c0-0.5-0.5-0.5-1.9-0.8c-1.3-0.3-2.7-0.8-2.7-2.5c0-1.8,1.6-2.7,3.1-2.7c2.3,0,3.2,1.3,3.3,2.7h-2c-0.1-0.5-0.4-0.9-1.3-0.9
			c-0.9,0-1.2,0.4-1.2,0.7c0,0.4,0.4,0.4,1.2,0.6C95.3,64,96.4,64.5,96.4,66.2z"/>
		<path class="st12" d="M105.7,60.5l0,4.8c0,2.3-1.5,3.5-3.4,3.5c-2,0-3.4-1.2-3.4-3.5l0-4.8h2v4.7c0,1.3,0.6,1.7,1.4,1.7
			c0.8,0,1.4-0.4,1.4-1.7v-4.7H105.7z"/>
		<path class="st12" d="M113.7,66.7v1.9h-5.3v-8.2h2v6.3H113.7z"/>
		<path class="st12" d="M121.9,62.4h-2.2v6.3h-2v-6.3h-2.2v-1.9h6.4V62.4z"/>
		<path class="st12" d="M124.1,60.5h2v8.2h-2V60.5z"/>
		<path class="st12" d="M136,60.5v8.2h-2.2l-3.1-5.1l0.2,1.7v3.4h-2v-8.2h2.2l3.1,5.1l-0.2-1.7v-3.4H136z"/>
		<path class="st12" d="M146.7,64.1v4.5H145v-1.1c-0.4,0.7-1.3,1.3-2.6,1.3c-2.2,0-4-1.8-4-4.2c0-2.4,1.8-4.3,4.2-4.3
			c2,0,3.5,1.2,4,2.9h-2.1c-0.3-0.7-1-1-1.9-1c-1.4,0-2.2,1-2.2,2.4c0,1.3,0.7,2.4,2.2,2.4c0.9,0,1.7-0.4,2-1.2h-2.4v-1.7H146.7z"/>
	</g>
</g>
<g id="Layer_7" class="st0">
	<g class="st1">
		<linearGradient id="SVGID_17_" gradientUnits="userSpaceOnUse" x1="10.0505" y1="84.4435" x2="53.8179" y2="40.6761">
			<stop  offset="0.268" style="stop-color:#DF7326"/>
			<stop  offset="0.7182" style="stop-color:#BF1A66"/>
		</linearGradient>
		<path class="st21" d="M41.4,49.4c-1.4,0.8-2.8,1.4-4.1,2l5.2,12.7c-1.6,0.2-4.6,0.5-6.9,0.5c-5.8,0-10.1-0.9-12.1-2.6
			c-1-0.8-1.5-1.8-1.5-3.1c0-3.7,4-5.7,11-9c4.6-2.1,9.9-4.8,15-8.6l-1.7-4.1c-6.5,4.6-9.6,5.9-15.2,8.5c-3.6,1.7-6.8,3.1-9.2,5
			c-3,2.3-4.5,5-4.5,8.2c0,2.6,1.1,4.9,3.1,6.6c2.9,2.5,7.9,3.7,14.7,3.7c0.1,0,0.3,0,0.4,0c5,0,9.2-0.7,9.4-0.8l4-0.8L41.4,49.4z"
			/>
		<linearGradient id="SVGID_18_" gradientUnits="userSpaceOnUse" x1="-3.7283" y1="70.1561" x2="40.3325" y2="26.0953">
			<stop  offset="0.268" style="stop-color:#DF7326"/>
			<stop  offset="0.7182" style="stop-color:#BF1A66"/>
		</linearGradient>
		<path class="st22" d="M17,63.1H7.1l12.3-30l0.1-0.2c0.6-1.5,1.4-3.3,2.4-4.1c0.4-0.3,1.2-0.7,2.7-0.8c1.5,0,2.4,0.5,2.7,0.8
			c1.1,0.8,1.8,2.7,2.4,4.1l0.3,0.7l3.8,9.4c1.1-0.5,2-0.9,3-1.4c0.4-0.2,0.8-0.4,1.1-0.6L34,31.4l-0.1-0.2c-0.8-2-1.8-4.4-3.9-6
			c-1-0.7-2.6-1.6-5.1-1.7c0,0-0.2,0-0.4,0c-0.1,0-0.4,0-0.4,0c-2.5,0.1-4.2,1-5.1,1.7c-2,1.6-3,4-3.9,6L0.2,67.7H21
			c-0.5-0.3-1-0.6-1.4-1C18.4,65.7,17.5,64.5,17,63.1z"/>
	</g>
	<g class="st1">
		<g>
			<g>
				<path class="st5" d="M67.1,34.4h-5l-1,2.8h-3.4l4.9-13.4h4.1l4.9,13.4H68L67.1,34.4z M66,31.3l-1.4-4.2l-1.4,4.2H66z"/>
				<path class="st5" d="M82.9,34v3.1h-8.7V23.7h3.3V34H82.9z"/>
				<path class="st5" d="M98.6,29.7v7.4h-2.8v-1.9c-0.6,1.2-2.1,2.1-4.2,2.1c-3.7,0-6.6-2.9-6.6-6.9c0-4,2.9-7,7-7
					c3.3,0,5.8,2,6.5,4.8H95c-0.5-1.1-1.6-1.7-3-1.7c-2.2,0-3.7,1.6-3.7,3.9c0,2.1,1.2,3.9,3.6,3.9c1.5,0,2.7-0.7,3.3-1.9h-4v-2.7
					H98.6z"/>
				<path class="st5" d="M105.9,26.8v2h5.4v3.1h-5.4V34h6v3.1h-9.2V23.7h9.2v3.1H105.9z"/>
				<path class="st5" d="M126.4,33.2c0,2.5-1.9,3.9-4.6,3.9h-6.1V23.7h6.1c2.3,0,4.1,1.1,4.1,3.5c0,1.3-0.6,2.1-1.6,2.6
					C125.7,30.4,126.4,31.7,126.4,33.2z M121.4,26.8H119v2h2.5c0.7,0,1.1-0.3,1.1-1C122.6,27,122.2,26.8,121.4,26.8z M123.1,32.9
					c0-0.7-0.3-1.1-1.4-1.1H119V34h2.7C122.8,34,123.1,33.6,123.1,32.9z"/>
				<path class="st5" d="M134.6,32.5h-1v4.7h-3.3V23.7h6c2.8,0,4.6,1.7,4.6,4.5c0,2.1-1,3.4-2.7,4l3.5,5h-4L134.6,32.5z M135.9,26.8
					h-2.4v2.8h2.4c1.1,0,1.7-0.5,1.7-1.4C137.6,27.3,137,26.8,135.9,26.8z"/>
				<path class="st5" d="M153.5,34.4h-5l-1,2.8h-3.4l4.9-13.4h4.1l4.9,13.4h-3.4L153.5,34.4z M152.4,31.3l-1.4-4.2l-1.4,4.2H152.4z"
					/>
			</g>
		</g>
	</g>
	<g class="st1">
		<path class="st12" d="M63.6,52.4c0,2-1.8,2.6-3.1,2.6c-2.5,0-3.4-1.5-3.6-2.8h2c0.2,0.7,0.5,1,1.6,1c0.8,0,1.2-0.3,1.2-0.7
			c0-0.5-0.5-0.5-1.8-0.8c-1.3-0.3-2.7-0.8-2.7-2.5c0-1.8,1.6-2.7,3.1-2.7c2.3,0,3.2,1.3,3.3,2.7h-2c-0.1-0.5-0.4-0.8-1.3-0.8
			c-0.9,0-1.2,0.4-1.2,0.7c0,0.4,0.4,0.4,1.2,0.6C62.5,50.2,63.6,50.7,63.6,52.4z"/>
		<path class="st12" d="M74.2,50.8c0,2.4-1.8,4.2-4.3,4.2c-2.4,0-4.3-1.8-4.3-4.2c0-2.4,1.8-4.2,4.3-4.2
			C72.3,46.5,74.2,48.4,74.2,50.8z M67.6,50.8c0,1.4,1,2.3,2.3,2.3c1.3,0,2.3-1,2.3-2.3s-1-2.3-2.3-2.3
			C68.6,48.4,67.6,49.4,67.6,50.8z"/>
		<path class="st12" d="M78.6,48.6v1.3h3.3v1.9h-3.3v3.1h-2v-8.1h5.6v1.9H78.6z"/>
		<path class="st12" d="M90.5,48.6h-2.2v6.3h-2v-6.3h-2.2v-1.9h6.4V48.6z"/>
		<path class="st12" d="M103.5,46.7l-2,8.1h-2.4l-0.7-2.9L98,49l-0.2,0l-0.4,2.9l-0.7,2.9h-2.4l-2-8.1h2l0.9,3.9l0.2,1.9l0.2-1.9
			l0.9-3.9h2.5l0.9,3.9l0.3,1.9l0.2-1.9l0.9-3.9H103.5z"/>
		<path class="st12" d="M111,53.1h-3l-0.6,1.7h-2.1l3-8.1h2.5l3,8.1h-2.1L111,53.1z M110.3,51.3l-0.9-2.5l-0.9,2.5H110.3z"/>
		<path class="st12" d="M118.5,52h-0.6v2.8h-2v-8.1h3.6c1.7,0,2.8,1,2.8,2.7c0,1.3-0.6,2.1-1.6,2.4l2.1,3h-2.4L118.5,52z
			 M119.3,48.6h-1.4v1.7h1.4c0.7,0,1-0.3,1-0.8C120.3,48.9,120,48.6,119.3,48.6z"/>
		<path class="st12" d="M127.1,48.6v1.2h3.3v1.9h-3.3v1.3h3.6v1.9h-5.6v-8.1h5.6v1.9H127.1z"/>
		<path class="st12" d="M64.5,64.7c0,2.3-1.8,4.1-4.2,4.1h-3v-8.1h3C62.7,60.6,64.5,62.4,64.5,64.7z M62.5,64.7
			c0-1.3-0.9-2.2-2.2-2.2h-1.1v4.4h1.1C61.6,66.9,62.5,66,62.5,64.7z"/>
		<path class="st12" d="M68.9,62.5v1.2h3.3v1.9h-3.3v1.3h3.6v1.9h-5.6v-8.1h5.6v1.9H68.9z"/>
		<path class="st12" d="M82,60.6l-2.6,8.1h-2.5l-2.5-8.1h2.1l1.7,5.7l1.7-5.7H82z"/>
		<path class="st12" d="M86.3,62.5v1.2h3.3v1.9h-3.3v1.3h3.6v1.9h-5.6v-8.1h5.6v1.9H86.3z"/>
		<path class="st12" d="M97.5,66.9v1.9h-5.3v-8.1h2v6.3H97.5z"/>
		<path class="st12" d="M108,64.7c0,2.4-1.8,4.2-4.3,4.2c-2.4,0-4.3-1.8-4.3-4.2c0-2.4,1.8-4.2,4.3-4.2
			C106.1,60.5,108,62.3,108,64.7z M101.5,64.7c0,1.4,1,2.3,2.3,2.3c1.3,0,2.3-1,2.3-2.3c0-1.4-1-2.3-2.3-2.3
			C102.4,62.4,101.5,63.4,101.5,64.7z"/>
		<path class="st12" d="M116.9,63.4c0,1.8-1.2,2.8-2.9,2.8h-1.5v2.5h-2v-8.1h3.5C115.6,60.6,116.9,61.6,116.9,63.4z M114.8,63.5
			c0-0.6-0.3-0.9-1-0.9h-1.4v1.9h1.4C114.5,64.4,114.8,64.1,114.8,63.5z"/>
		<path class="st12" d="M127.4,60.6v8.1h-2v-5.4l-2,3.1h-0.2l-2-3.1v5.4h-2v-8.1h2.2l1.9,2.8l1.9-2.8H127.4z"/>
		<path class="st12" d="M132.2,62.5v1.2h3.3v1.9h-3.3v1.3h3.6v1.9h-5.6v-8.1h5.6v1.9H132.2z"/>
		<path class="st12" d="M145.3,60.6v8.1h-2.2l-3.1-5.1l0.2,1.7v3.4h-2v-8.1h2.2l3,5.1l-0.2-1.7v-3.4H145.3z"/>
		<path class="st12" d="M153.9,62.5h-2.2v6.3h-2v-6.3h-2.2v-1.9h6.4V62.5z"/>
	</g>
</g>
<g id="Layer_8" class="st0">
	<g class="st1">
		<linearGradient id="SVGID_19_" gradientUnits="userSpaceOnUse" x1="10.006" y1="84.1277" x2="53.5722" y2="40.5614">
			<stop  offset="0.268" style="stop-color:#DF7326"/>
			<stop  offset="0.7182" style="stop-color:#BF1A66"/>
		</linearGradient>
		<path class="st23" d="M41.2,49.2c-1.4,0.8-2.8,1.4-4.1,2l5.2,12.7c-1.6,0.2-4.6,0.5-6.9,0.5c-5.7,0-10-0.9-12.1-2.6
			c-1-0.8-1.4-1.8-1.5-3.1c0-3.7,3.9-5.7,11-9c4.6-2.1,9.8-4.8,14.9-8.5L46,37.2c-6.5,4.6-9.6,5.9-15.2,8.5c-3.6,1.7-6.8,3.1-9.2,5
			c-3,2.3-4.5,5-4.4,8.2c0,2.6,1.1,4.9,3.1,6.6c2.9,2.4,7.8,3.7,14.6,3.7c0.1,0,0.3,0,0.4,0c5,0,9.2-0.7,9.3-0.7l4-0.8L41.2,49.2z"
			/>
		<linearGradient id="SVGID_20_" gradientUnits="userSpaceOnUse" x1="-3.7094" y1="69.9059" x2="40.1488" y2="26.0476">
			<stop  offset="0.268" style="stop-color:#DF7326"/>
			<stop  offset="0.7182" style="stop-color:#BF1A66"/>
		</linearGradient>
		<path class="st24" d="M16.9,62.9H7l12.2-29.8l0.1-0.2c0.6-1.5,1.4-3.3,2.4-4.1c0.4-0.3,1.2-0.7,2.7-0.8c1.5,0,2.3,0.5,2.7,0.8
			c1.1,0.8,1.8,2.6,2.4,4.1l0.3,0.7l3.8,9.4c1-0.5,2-0.9,3-1.4c0.4-0.2,0.8-0.4,1.1-0.6l-3.9-9.6l-0.1-0.2c-0.8-2-1.8-4.4-3.8-6
			c-1-0.7-2.6-1.6-5.1-1.7c0,0-0.2,0-0.4,0c-0.1,0-0.4,0-0.4,0c-2.5,0.1-4.2,1-5.1,1.7c-2,1.6-3,4-3.8,6L0.2,67.5h20.6
			c-0.5-0.3-1-0.6-1.4-1C18.3,65.5,17.4,64.3,16.9,62.9z"/>
	</g>
	<g class="st1">
		<g>
			<g>
				<path class="st5" d="M66.8,34.3h-5l-1,2.8h-3.4l4.8-13.3h4.1l4.8,13.3h-3.4L66.8,34.3z M65.7,31.2L64.3,27l-1.4,4.2H65.7z"/>
				<path class="st5" d="M82.5,34v3.1h-8.7V23.7h3.2V34H82.5z"/>
				<path class="st5" d="M98.2,29.7v7.4h-2.8v-1.9c-0.6,1.2-2.1,2.1-4.2,2.1c-3.7,0-6.6-2.9-6.6-6.9c0-4,2.9-7,6.9-7
					c3.3,0,5.8,2,6.5,4.8h-3.5c-0.5-1.1-1.6-1.7-3-1.7c-2.2,0-3.6,1.6-3.6,3.9c0,2.1,1.2,3.9,3.6,3.9c1.5,0,2.7-0.6,3.3-1.9h-4v-2.7
					H98.2z"/>
				<path class="st5" d="M105.4,26.8v2h5.4v3.1h-5.4V34h5.9v3.1h-9.2V23.7h9.2v3.1H105.4z"/>
				<path class="st5" d="M125.8,33.1c0,2.5-1.9,3.9-4.6,3.9h-6V23.7h6c2.3,0,4.1,1.1,4.1,3.5c0,1.3-0.6,2.1-1.6,2.6
					C125.2,30.3,125.8,31.6,125.8,33.1z M120.8,26.8h-2.3v2h2.5c0.7,0,1.1-0.3,1.1-1C122.1,27,121.6,26.8,120.8,26.8z M122.5,32.9
					c0-0.7-0.3-1.1-1.4-1.1h-2.7V34h2.7C122.3,34,122.5,33.5,122.5,32.9z"/>
				<path class="st5" d="M134,32.4h-1v4.6h-3.2V23.7h5.9c2.8,0,4.6,1.7,4.6,4.5c0,2.1-1,3.4-2.7,3.9l3.5,4.9h-4L134,32.4z
					 M135.3,26.8h-2.3v2.8h2.3c1.1,0,1.7-0.5,1.7-1.4C137,27.3,136.4,26.8,135.3,26.8z"/>
				<path class="st5" d="M152.8,34.3h-5l-1,2.8h-3.4l4.8-13.3h4.1l4.8,13.3h-3.4L152.8,34.3z M151.7,31.2l-1.4-4.2l-1.4,4.2H151.7z"
					/>
			</g>
		</g>
	</g>
	<g class="st1">
		<path class="st12" d="M56.7,50.6c0-2.4,1.8-4.2,4.2-4.2c2,0,3.5,1.2,3.9,3h-2.1c-0.3-0.7-1-1.1-1.8-1.1c-1.3,0-2.2,1-2.2,2.3
			c0,1.4,0.9,2.3,2.2,2.3c0.9,0,1.5-0.4,1.8-1.1h2.1c-0.4,1.8-2,3-3.9,3C58.5,54.8,56.7,53,56.7,50.6z"/>
		<path class="st12" d="M69.2,48.4v1.2h3.3v1.9h-3.3v1.3h3.6v1.9h-5.6v-8.1h5.6v1.9H69.2z"/>
		<path class="st12" d="M77.8,51.8h-0.6v2.8h-2v-8.1h3.6c1.7,0,2.8,1,2.8,2.7c0,1.3-0.6,2.1-1.6,2.4l2.1,3h-2.4L77.8,51.8z
			 M78.6,48.4h-1.4v1.7h1.4c0.7,0,1-0.3,1-0.8C79.6,48.7,79.3,48.4,78.6,48.4z"/>
		<path class="st12" d="M90.2,48.4H88v6.2h-2v-6.2h-2.2v-1.9h6.4V48.4z"/>
		<path class="st12" d="M92.5,46.5h2v8.1h-2V46.5z"/>
		<path class="st12" d="M99.2,48.4v1.3h3.3v1.9h-3.3v3.1h-2v-8.1h5.6v1.9H99.2z"/>
		<path class="st12" d="M105.2,46.5h2v8.1h-2V46.5z"/>
		<path class="st12" d="M114.6,54.6l-2.7-3.7v3.7h-2v-8.1h2V50l2.5-3.4h2.4l-2.9,3.9l3.1,4.2H114.6z"/>
		<path class="st12" d="M124.5,53h-3l-0.6,1.7h-2.1l2.9-8.1h2.5l2.9,8.1h-2.1L124.5,53z M123.9,51.1l-0.9-2.5l-0.9,2.5H123.9z"/>
		<path class="st12" d="M129.2,50.6c0-2.4,1.8-4.2,4.2-4.2c2,0,3.5,1.2,3.9,3h-2.1c-0.3-0.7-1-1.1-1.8-1.1c-1.3,0-2.2,1-2.2,2.3
			c0,1.4,0.9,2.3,2.2,2.3c0.9,0,1.5-0.4,1.8-1.1h2.1c-0.4,1.8-2,3-3.9,3C130.9,54.8,129.2,53,129.2,50.6z"/>
		<path class="st12" d="M139.7,46.5h2v8.1h-2V46.5z"/>
		<path class="st12" d="M149.7,46.5v5.3c0,1.9-1.3,2.9-2.9,2.9c-1.6,0-2.9-0.9-2.9-2.9v-0.4h2v0.3c0,0.9,0.4,1.1,0.9,1.1
			c0.5,0,0.9-0.2,0.9-1.1v-5.3H149.7z"/>
		<path class="st12" d="M158.8,52.2c0,2-1.8,2.6-3.1,2.6c-2.5,0-3.4-1.4-3.6-2.8h2c0.2,0.7,0.5,1,1.6,1c0.8,0,1.2-0.3,1.2-0.7
			c0-0.5-0.5-0.5-1.8-0.8c-1.3-0.3-2.7-0.8-2.7-2.4c0-1.8,1.6-2.6,3.1-2.6c2.3,0,3.2,1.3,3.3,2.7h-2c-0.1-0.5-0.4-0.8-1.3-0.8
			c-0.9,0-1.1,0.4-1.1,0.7c0,0.4,0.4,0.4,1.2,0.6C157.7,50,158.8,50.5,158.8,52.2z"/>
		<path class="st12" d="M165.8,54.6l-2.7-3.7v3.7h-2v-8.1h2V50l2.5-3.4h2.4l-2.9,3.9l3.1,4.2H165.8z"/>
		<path class="st12" d="M170.5,46.5h2v8.1h-2V46.5z"/>
		<path class="st12" d="M63.3,66.1c0,2-1.8,2.6-3.1,2.6c-2.5,0-3.4-1.4-3.6-2.8h2c0.2,0.7,0.5,1,1.6,1c0.8,0,1.2-0.3,1.2-0.7
			c0-0.5-0.5-0.5-1.8-0.8c-1.3-0.3-2.7-0.8-2.7-2.4c0-1.8,1.6-2.6,3.1-2.6c2.3,0,3.2,1.3,3.3,2.7h-2c-0.1-0.5-0.4-0.8-1.3-0.8
			c-0.9,0-1.1,0.4-1.1,0.7c0,0.4,0.4,0.4,1.2,0.6C62.2,63.9,63.3,64.4,63.3,66.1z"/>
		<path class="st12" d="M67.7,62.3v1.2h3.3v1.9h-3.3v1.3h3.6v1.9h-5.6v-8.1h5.6v1.9H67.7z"/>
		<path class="st12" d="M81.8,60.4v8.1h-2v-5.3l-2,3.1h-0.2l-2-3.1v5.3h-2v-8.1h2.2l1.9,2.8l1.9-2.8H81.8z"/>
		<path class="st12" d="M84.5,60.4h2v8.1h-2V60.4z"/>
		<path class="st12" d="M96.3,60.4v8.1h-2.2l-3-5.1l0.2,1.7v3.4h-2v-8.1h2.2l3,5.1l-0.2-1.7v-3.4H96.3z"/>
		<path class="st12" d="M104.2,66.9h-3l-0.6,1.7h-2.1l2.9-8.1h2.5l2.9,8.1h-2.1L104.2,66.9z M103.6,65l-0.9-2.5l-0.9,2.5H103.6z"/>
		<path class="st12" d="M111.7,65.7h-0.6v2.8h-2v-8.1h3.6c1.7,0,2.8,1,2.8,2.7c0,1.3-0.6,2.1-1.6,2.4l2.1,3h-2.4L111.7,65.7z
			 M112.5,62.3h-1.4V64h1.4c0.7,0,1-0.3,1-0.8C113.5,62.6,113.2,62.3,112.5,62.3z"/>
		<path class="st12" d="M118.3,60.4h2v8.1h-2V60.4z"/>
	</g>
</g>
<g id="Layer_9" class="st0">
	<g class="st1">
		<linearGradient id="SVGID_21_" gradientUnits="userSpaceOnUse" x1="9.8308" y1="84.0545" x2="53.3227" y2="40.5626">
			<stop  offset="0.268" style="stop-color:#DF7326"/>
			<stop  offset="0.7182" style="stop-color:#BF1A66"/>
		</linearGradient>
		<path class="st25" d="M40.9,49.2c-1.4,0.8-2.8,1.4-4.1,2L42,63.9c-1.6,0.2-4.6,0.5-6.9,0.5c-5.7,0-10-0.9-12.1-2.6
			c-1-0.8-1.4-1.8-1.5-3.1c0-3.7,3.9-5.7,11-8.9c4.6-2.1,9.8-4.8,14.9-8.5l-1.7-4.1c-6.5,4.6-9.6,5.9-15.1,8.4
			c-3.6,1.7-6.7,3.1-9.2,5c-3,2.3-4.5,5-4.4,8.2c0,2.6,1.1,4.9,3.1,6.6C23,67.8,27.9,69,34.7,69c0.1,0,0.3,0,0.4,0
			c5,0,9.1-0.7,9.3-0.7l4-0.8L40.9,49.2z"/>
		<linearGradient id="SVGID_22_" gradientUnits="userSpaceOnUse" x1="-3.8612" y1="69.8569" x2="39.9222" y2="26.0736">
			<stop  offset="0.268" style="stop-color:#DF7326"/>
			<stop  offset="0.7182" style="stop-color:#BF1A66"/>
		</linearGradient>
		<path class="st26" d="M16.7,62.9H6.9l12.2-29.8l0.1-0.2c0.6-1.5,1.4-3.3,2.4-4.1c0.4-0.3,1.2-0.7,2.7-0.8c1.5,0,2.3,0.5,2.7,0.8
			c1.1,0.8,1.8,2.6,2.4,4.1l0.3,0.7l3.8,9.3c1-0.5,2-0.9,3-1.4c0.4-0.2,0.8-0.4,1.1-0.6l-3.9-9.6l-0.1-0.2c-0.8-2-1.8-4.4-3.8-6
			c-1-0.7-2.6-1.6-5.1-1.7c0,0-0.2,0-0.4,0c-0.1,0-0.4,0-0.4,0c-2.5,0.1-4.1,1-5.1,1.7c-2,1.6-3,4-3.8,6L0.1,67.4h20.6
			c-0.5-0.3-1-0.6-1.4-1C18.1,65.5,17.2,64.2,16.7,62.9z"/>
	</g>
	<g class="st1">
		<g>
			<g>
				<path class="st5" d="M66.5,34.3h-5l-1,2.8h-3.4L62,23.7H66l4.8,13.3h-3.4L66.5,34.3z M65.4,31.2L64,27.1l-1.4,4.1H65.4z"/>
				<path class="st5" d="M82.2,34v3.1h-8.6V23.7h3.2V34H82.2z"/>
				<path class="st5" d="M97.8,29.7v7.4h-2.8v-1.9c-0.6,1.2-2.1,2.1-4.2,2.1c-3.7,0-6.6-2.9-6.6-6.9c0-4,2.9-6.9,6.9-6.9
					c3.3,0,5.8,2,6.5,4.8h-3.5c-0.5-1.1-1.6-1.7-3-1.7c-2.2,0-3.6,1.6-3.6,3.9c0,2.1,1.2,3.8,3.6,3.8c1.5,0,2.7-0.6,3.3-1.9h-4v-2.7
					H97.8z"/>
				<path class="st5" d="M105,26.8v2h5.4v3.1H105V34h5.9v3.1h-9.2V23.7h9.2v3.1H105z"/>
				<path class="st5" d="M125.4,33.2c0,2.5-1.9,3.9-4.5,3.9h-6V23.7h6c2.3,0,4.1,1.1,4.1,3.5c0,1.3-0.6,2.1-1.6,2.6
					C124.8,30.3,125.4,31.7,125.4,33.2z M120.4,26.8h-2.3v2h2.5c0.7,0,1.1-0.3,1.1-1C121.7,27,121.2,26.8,120.4,26.8z M122.2,32.9
					c0-0.7-0.3-1.1-1.4-1.1h-2.7V34h2.7C121.9,34,122.2,33.6,122.2,32.9z"/>
				<path class="st5" d="M133.6,32.4h-1v4.6h-3.2V23.7h5.9c2.8,0,4.6,1.7,4.6,4.5c0,2.1-1,3.4-2.7,3.9l3.5,4.9h-4L133.6,32.4z
					 M134.9,26.8h-2.3v2.8h2.3c1.1,0,1.7-0.5,1.7-1.4C136.6,27.3,136,26.8,134.9,26.8z"/>
				<path class="st5" d="M152.4,34.3h-5l-1,2.8H143l4.8-13.3h4.1l4.8,13.3h-3.4L152.4,34.3z M151.3,31.2l-1.4-4.1l-1.4,4.1H151.3z"
					/>
			</g>
		</g>
	</g>
	<path class="st27" d="M56.8,46.5h2v8.1h-2V46.5z"/>
	<path class="st27" d="M68.5,46.5v8.1h-2.2l-3-5.1l0.2,1.7v3.4h-2v-8.1h2.2l3,5.1l-0.2-1.7v-3.4H68.5z"/>
	<path class="st27" d="M77.1,48.4h-2.2v6.2h-2v-6.2h-2.2v-1.9h6.4V48.4z"/>
	<path class="st27" d="M81.3,48.4v1.2h3.3v1.9h-3.3v1.3h3.6v1.9h-5.6v-8.1h5.6v1.9H81.3z"/>
	<path class="st27" d="M89.9,51.8h-0.6v2.8h-2v-8.1h3.6c1.7,0,2.8,1,2.8,2.7c0,1.3-0.6,2.1-1.6,2.4l2.1,3h-2.4L89.9,51.8z
		 M90.7,48.4h-1.4v1.7h1.4c0.7,0,1-0.3,1-0.8C91.7,48.7,91.3,48.4,90.7,48.4z"/>
	<path class="st27" d="M103.4,46.5v8.1h-2.2l-3-5.1l0.2,1.7v3.4h-2v-8.1h2.2l3,5.1l-0.1-1.7v-3.4H103.4z"/>
	<path class="st27" d="M111.3,52.9h-3l-0.6,1.7h-2.1l2.9-8.1h2.5l2.9,8.1h-2.1L111.3,52.9z M110.7,51.1l-0.9-2.5l-0.9,2.5H110.7z"/>
	<path class="st27" d="M122.1,48.4h-2.2v6.2h-2v-6.2h-2.2v-1.9h6.4V48.4z"/>
	<path class="st27" d="M124.4,46.5h2v8.1h-2V46.5z"/>
	<path class="st27" d="M137.2,50.6c0,2.4-1.8,4.2-4.2,4.2s-4.2-1.8-4.2-4.2c0-2.4,1.8-4.2,4.2-4.2S137.2,48.2,137.2,50.6z
		 M130.7,50.6c0,1.4,0.9,2.3,2.2,2.3c1.3,0,2.2-1,2.2-2.3c0-1.4-0.9-2.3-2.2-2.3C131.7,48.3,130.7,49.2,130.7,50.6z"/>
	<path class="st27" d="M146.7,46.5v8.1h-2.2l-3-5.1l0.2,1.7v3.4h-2v-8.1h2.2l3,5.1l-0.2-1.7v-3.4H146.7z"/>
	<path class="st27" d="M154.5,52.9h-3l-0.6,1.7h-2.1l2.9-8.1h2.5l2.9,8.1h-2.1L154.5,52.9z M153.9,51.1l-0.9-2.5l-0.9,2.5H153.9z"/>
	<path class="st27" d="M164.7,52.7v1.9h-5.2v-8.1h2v6.2H164.7z"/>
	<g class="st1">
		<path class="st12" d="M63.1,66c0,2-1.8,2.6-3.1,2.6c-2.5,0-3.4-1.4-3.6-2.8h2c0.2,0.7,0.5,1,1.6,1c0.8,0,1.2-0.3,1.2-0.7
			c0-0.5-0.5-0.5-1.8-0.8c-1.3-0.3-2.7-0.8-2.7-2.4c0-1.8,1.6-2.6,3.1-2.6c2.3,0,3.2,1.3,3.3,2.7h-2c-0.1-0.5-0.4-0.8-1.3-0.8
			c-0.9,0-1.1,0.4-1.1,0.7c0,0.4,0.4,0.4,1.2,0.6C62,63.9,63.1,64.4,63.1,66z"/>
		<path class="st12" d="M65.1,64.4c0-2.4,1.8-4.2,4.2-4.2c2,0,3.5,1.2,3.9,3h-2.1c-0.3-0.7-1-1.1-1.8-1.1c-1.3,0-2.2,1-2.2,2.3
			c0,1.4,0.9,2.3,2.2,2.3c0.9,0,1.5-0.4,1.8-1.1h2.1c-0.4,1.8-2,3-3.9,3C66.9,68.6,65.1,66.8,65.1,64.4z"/>
		<path class="st12" d="M82.7,60.4v8.1h-2v-3.2h-3.1v3.2h-2v-8.1h2v3h3.1v-3H82.7z"/>
		<path class="st12" d="M93.6,64.4c0,2.4-1.8,4.2-4.2,4.2s-4.2-1.8-4.2-4.2c0-2.4,1.8-4.2,4.2-4.2S93.6,62.1,93.6,64.4z M87.1,64.4
			c0,1.4,0.9,2.3,2.2,2.3c1.3,0,2.2-1,2.2-2.3c0-1.4-0.9-2.3-2.2-2.3C88.1,62.1,87.1,63.1,87.1,64.4z"/>
		<path class="st12" d="M104.1,64.4c0,2.4-1.8,4.2-4.2,4.2c-2.4,0-4.2-1.8-4.2-4.2c0-2.4,1.8-4.2,4.2-4.2
			C102.3,60.3,104.1,62.1,104.1,64.4z M97.6,64.4c0,1.4,0.9,2.3,2.2,2.3c1.3,0,2.2-1,2.2-2.3c0-1.4-0.9-2.3-2.2-2.3
			C98.6,62.1,97.6,63.1,97.6,64.4z"/>
		<path class="st12" d="M111.8,66.6v1.9h-5.2v-8.1h2v6.2H111.8z"/>
	</g>
</g>
<g id="Layer_10" class="st0">
	<g class="st1">
		<linearGradient id="SVGID_23_" gradientUnits="userSpaceOnUse" x1="9.4947" y1="83.9179" x2="52.8885" y2="40.5241">
			<stop  offset="0.268" style="stop-color:#DF7326"/>
			<stop  offset="0.7182" style="stop-color:#BF1A66"/>
		</linearGradient>
		<path class="st28" d="M40.5,49.1c-1.4,0.8-2.8,1.4-4.1,2l5.1,12.6c-1.6,0.2-4.6,0.5-6.9,0.5c-5.7,0-10-0.9-12-2.6
			c-1-0.8-1.4-1.8-1.4-3.1c0-3.7,3.9-5.7,10.9-8.9c4.6-2.1,9.8-4.7,14.8-8.5l-1.7-4c-6.5,4.6-9.6,5.8-15.1,8.4
			c-3.6,1.7-6.7,3.1-9.1,5c-3,2.3-4.5,5-4.4,8.1c0,2.6,1.1,4.9,3.1,6.6c2.9,2.4,7.8,3.7,14.6,3.7c0.1,0,0.3,0,0.4,0
			c5,0,9.1-0.7,9.3-0.7l4-0.8L40.5,49.1z"/>
		<linearGradient id="SVGID_24_" gradientUnits="userSpaceOnUse" x1="-4.1665" y1="69.7524" x2="39.5182" y2="26.0677">
			<stop  offset="0.268" style="stop-color:#DF7326"/>
			<stop  offset="0.7182" style="stop-color:#BF1A66"/>
		</linearGradient>
		<path class="st29" d="M16.4,62.8H6.5l12.2-29.7l0.1-0.2c0.6-1.5,1.4-3.3,2.4-4.1c0.4-0.3,1.2-0.7,2.7-0.8c1.5,0,2.3,0.5,2.7,0.8
			c1,0.8,1.8,2.6,2.4,4.1l0.3,0.7l3.8,9.3c1-0.5,2-0.9,3-1.4c0.4-0.2,0.7-0.4,1.1-0.6l-3.9-9.5l-0.1-0.2c-0.8-2-1.8-4.4-3.8-5.9
			c-1-0.7-2.6-1.6-5.1-1.7c0,0-0.2,0-0.4,0c-0.1,0-0.4,0-0.4,0c-2.5,0.1-4.1,1-5.1,1.7c-2,1.6-3,4-3.8,5.9L-0.2,67.3h20.5
			c-0.5-0.3-1-0.6-1.4-1C17.7,65.4,16.9,64.2,16.4,62.8z"/>
	</g>
	<g class="st1">
		<g>
			<g>
				<path class="st5" d="M66,34.3h-5L60.1,37h-3.4l4.8-13.3h4.1L70.4,37H67L66,34.3z M65,31.2l-1.4-4.1l-1.4,4.1H65z"/>
				<path class="st5" d="M81.7,34V37h-8.6V23.7h3.2V34H81.7z"/>
				<path class="st5" d="M97.3,29.7V37h-2.8v-1.9c-0.6,1.2-2.1,2.1-4.2,2.1c-3.7,0-6.6-2.9-6.6-6.9c0-4,2.9-6.9,6.9-6.9
					c3.3,0,5.8,2,6.5,4.8h-3.5c-0.5-1.1-1.6-1.7-3-1.7c-2.2,0-3.6,1.6-3.6,3.9c0,2.1,1.2,3.8,3.6,3.8c1.5,0,2.7-0.6,3.2-1.9h-3.9
					v-2.7H97.3z"/>
				<path class="st5" d="M104.5,26.8v2h5.4v3.1h-5.4V34h5.9V37h-9.2V23.7h9.2v3.1H104.5z"/>
				<path class="st5" d="M124.8,33.1c0,2.5-1.9,3.9-4.5,3.9h-6V23.7h6c2.3,0,4.1,1.1,4.1,3.5c0,1.3-0.6,2.1-1.6,2.6
					C124.2,30.3,124.8,31.6,124.8,33.1z M119.9,26.8h-2.3v2h2.5c0.7,0,1.1-0.3,1.1-1C121.1,27,120.6,26.8,119.9,26.8z M121.6,32.9
					c0-0.7-0.3-1.1-1.3-1.1h-2.7V34h2.7C121.3,34,121.6,33.5,121.6,32.9z"/>
				<path class="st5" d="M133,32.4h-1V37h-3.2V23.7h5.9c2.8,0,4.6,1.7,4.6,4.4c0,2.1-1,3.4-2.7,3.9L140,37h-3.9L133,32.4z
					 M134.3,26.8h-2.3v2.8h2.3c1.1,0,1.7-0.5,1.7-1.4C135.9,27.3,135.4,26.8,134.3,26.8z"/>
				<path class="st5" d="M151.7,34.3h-5l-0.9,2.8h-3.4l4.8-13.3h4.1l4.8,13.3h-3.4L151.7,34.3z M150.7,31.2l-1.4-4.1l-1.4,4.1H150.7
					z"/>
			</g>
		</g>
	</g>
	<g class="st1">
		<path class="st12" d="M63.1,46.5l0,4.8c0,2.3-1.5,3.4-3.4,3.4c-1.9,0-3.4-1.2-3.4-3.4l0-4.8h2v4.7c0,1.3,0.6,1.7,1.4,1.7
			s1.4-0.4,1.4-1.7v-4.7H63.1z"/>
		<path class="st12" d="M72.8,46.5v8.1h-2.2l-3-5.1l0.2,1.7v3.4h-2v-8.1H68l3,5.1l-0.1-1.7v-3.4H72.8z"/>
		<path class="st12" d="M75.5,46.5h2v8.1h-2V46.5z"/>
		<path class="st12" d="M87.3,46.5l-2.5,8.1h-2.5l-2.5-8.1h2.1l1.7,5.7l1.7-5.7H87.3z"/>
		<path class="st12" d="M91.5,48.3v1.2h3.3v1.9h-3.3v1.3h3.6v1.9h-5.6v-8.1h5.6v1.9H91.5z"/>
		<path class="st12" d="M100.1,51.7h-0.6v2.8h-2v-8.1h3.6c1.7,0,2.8,1,2.8,2.7c0,1.3-0.6,2.1-1.6,2.4l2.1,3H102L100.1,51.7z
			 M100.9,48.3h-1.4V50h1.4c0.7,0,1-0.3,1-0.8C101.9,48.6,101.6,48.3,100.9,48.3z"/>
		<path class="st12" d="M112.6,52.1c0,2-1.8,2.6-3.1,2.6c-2.5,0-3.4-1.4-3.6-2.8h2c0.2,0.7,0.5,1,1.6,1c0.8,0,1.2-0.3,1.2-0.7
			c0-0.5-0.5-0.5-1.8-0.8c-1.3-0.3-2.7-0.8-2.7-2.4c0-1.8,1.6-2.6,3.1-2.6c2.3,0,3.1,1.3,3.3,2.7h-2c-0.1-0.5-0.4-0.8-1.3-0.8
			c-0.9,0-1.1,0.4-1.1,0.7c0,0.4,0.4,0.4,1.2,0.6C111.5,49.9,112.6,50.5,112.6,52.1z"/>
		<path class="st12" d="M115,46.5h2v8.1h-2V46.5z"/>
		<path class="st12" d="M125.5,48.3h-2.2v6.2h-2v-6.2h-2.2v-1.9h6.4V48.3z"/>
		<path class="st12" d="M132,52v2.6h-2V52l-2.8-5.5h2.2l1.6,3.3l1.6-3.3h2.2L132,52z"/>
		<path class="st12" d="M56,64.4c0-2.4,1.8-4.2,4.2-4.2c2,0,3.5,1.2,3.9,3H62c-0.3-0.7-1-1.1-1.8-1.1c-1.3,0-2.2,1-2.2,2.3
			c0,1.3,0.9,2.3,2.2,2.3c0.9,0,1.5-0.4,1.8-1.1h2.1c-0.4,1.8-1.9,3-3.9,3C57.7,68.5,56,66.7,56,64.4z"/>
		<path class="st12" d="M74.6,64.4c0,2.4-1.8,4.2-4.2,4.2s-4.2-1.8-4.2-4.2c0-2.4,1.8-4.2,4.2-4.2S74.6,62,74.6,64.4z M68.1,64.4
			c0,1.3,0.9,2.3,2.2,2.3c1.3,0,2.2-1,2.2-2.3c0-1.3-0.9-2.3-2.2-2.3C69.1,62,68.1,63,68.1,64.4z"/>
		<path class="st12" d="M82.2,66.5v1.9H77v-8.1h2v6.2H82.2z"/>
		<path class="st12" d="M89.7,66.5v1.9h-5.2v-8.1h2v6.2H89.7z"/>
		<path class="st12" d="M93.9,62.2v1.2h3.3v1.9h-3.3v1.3h3.6v1.9H92v-8.1h5.6v1.9H93.9z"/>
		<path class="st12" d="M107.7,63.9v4.5h-1.7v-1.1c-0.4,0.7-1.3,1.3-2.5,1.3c-2.2,0-4-1.7-4-4.2c0-2.4,1.8-4.2,4.2-4.2
			c2,0,3.5,1.2,3.9,2.9h-2.1c-0.3-0.6-1-1-1.8-1c-1.3,0-2.2,0.9-2.2,2.4c0,1.3,0.7,2.3,2.2,2.3c0.9,0,1.6-0.4,2-1.2h-2.4v-1.6H107.7
			z"/>
		<path class="st12" d="M112.4,62.2v1.2h3.3v1.9h-3.3v1.3h3.6v1.9h-5.6v-8.1h5.6v1.9H112.4z"/>
	</g>
</g>
<g id="Layer_11" class="st0">
	<g class="st1">
		<g>
			<path class="st5" d="M65.8,47.6h-4.9L60,50.3h-3.3l4.7-13h4l4.7,13h-3.3L65.8,47.6z M64.7,44.6l-1.4-4.1l-1.4,4.1H64.7z"/>
			<path class="st5" d="M81.1,47.3v3h-8.4v-13h3.2v10H81.1z"/>
			<path class="st5" d="M96.4,43.1v7.2h-2.7v-1.8c-0.6,1.2-2,2.1-4.1,2.1c-3.6,0-6.4-2.8-6.4-6.7c0-3.9,2.8-6.8,6.8-6.8
				c3.2,0,5.6,1.9,6.3,4.7h-3.4c-0.5-1-1.6-1.7-3-1.7c-2.2,0-3.6,1.5-3.6,3.8c0,2.1,1.2,3.8,3.5,3.8c1.4,0,2.7-0.6,3.2-1.9h-3.9
				v-2.6H96.4z"/>
			<path class="st5" d="M103.4,40.3v1.9h5.3v3h-5.3v2h5.8v3h-9v-13h9v3H103.4z"/>
			<path class="st5" d="M123.4,46.5c0,2.5-1.8,3.8-4.4,3.8h-5.9v-13h5.9c2.3,0,4,1.1,4,3.4c0,1.3-0.5,2-1.5,2.5
				C122.7,43.8,123.4,45,123.4,46.5z M118.5,40.3h-2.3v2h2.4c0.7,0,1.1-0.3,1.1-1C119.7,40.5,119.3,40.3,118.5,40.3z M120.2,46.2
				c0-0.7-0.3-1.1-1.3-1.1h-2.6v2.2h2.6C119.9,47.3,120.2,46.9,120.2,46.2z"/>
			<path class="st5" d="M131.3,45.8h-1v4.5h-3.2v-13h5.8c2.8,0,4.5,1.6,4.5,4.4c0,2.1-1,3.3-2.6,3.9l3.4,4.8h-3.9L131.3,45.8z
				 M132.6,40.3h-2.3V43h2.3c1.1,0,1.6-0.4,1.6-1.3C134.3,40.8,133.7,40.3,132.6,40.3z"/>
			<path class="st5" d="M149.7,47.6h-4.9l-0.9,2.7h-3.3l4.7-13h4l4.7,13h-3.3L149.7,47.6z M148.7,44.6l-1.4-4.1l-1.4,4.1H148.7z"/>
		</g>
	</g>
	<g class="st1">
		<linearGradient id="SVGID_25_" gradientUnits="userSpaceOnUse" x1="9.9387" y1="82.9454" x2="52.4587" y2="40.4255">
			<stop  offset="0.268" style="stop-color:#DF7326"/>
			<stop  offset="0.7182" style="stop-color:#BF1A66"/>
		</linearGradient>
		<path class="st30" d="M40.4,48.9c-1.3,0.8-2.7,1.3-4,2l5,12.4c-1.5,0.2-4.5,0.5-6.7,0.5c-5.6,0-9.8-0.9-11.8-2.5
			c-1-0.8-1.4-1.8-1.4-3c0-3.6,3.9-5.6,10.7-8.7c4.5-2.1,9.6-4.6,14.6-8.3l-1.6-4c-6.3,4.5-9.4,5.7-14.8,8.2c-3.5,1.6-6.6,3.1-9,4.9
			c-2.9,2.3-4.4,4.9-4.3,8c0,2.6,1.1,4.8,3,6.4c2.8,2.4,7.6,3.6,14.3,3.6c0.1,0,0.3,0,0.4,0c4.9,0,8.9-0.7,9.1-0.7l3.9-0.7
			L40.4,48.9z"/>
		<linearGradient id="SVGID_26_" gradientUnits="userSpaceOnUse" x1="-3.4473" y1="69.0652" x2="39.3576" y2="26.2602">
			<stop  offset="0.268" style="stop-color:#DF7326"/>
			<stop  offset="0.7182" style="stop-color:#BF1A66"/>
		</linearGradient>
		<path class="st31" d="M16.7,62.2H7.1L19,33.1L19,33c0.6-1.4,1.3-3.2,2.4-4c0.4-0.3,1.2-0.7,2.6-0.7c1.5,0,2.3,0.5,2.6,0.7
			c1,0.8,1.8,2.6,2.4,4l0.3,0.7l3.7,9.1c1-0.5,2-0.9,2.9-1.4c0.3-0.2,0.7-0.4,1.1-0.6l-3.8-9.3l-0.1-0.2c-0.8-1.9-1.8-4.3-3.8-5.8
			c-0.9-0.7-2.5-1.6-5-1.7c0,0-0.2,0-0.3,0c-0.1,0-0.4,0-0.4,0c-2.4,0.1-4.1,0.9-5,1.7c-2,1.5-3,3.9-3.7,5.8L0.4,66.7h20.1
			c-0.5-0.3-1-0.6-1.4-1C18,64.8,17.2,63.6,16.7,62.2z"/>
	</g>
	<g class="st1">
		<path class="st12" d="M65.3,59.5v7.9h-1.9v-5.2l-2,3h-0.2l-2-3v5.2h-1.9v-7.9h2.2l1.8,2.7l1.8-2.7H65.3z"/>
		<path class="st12" d="M74.3,65.1c0,1.5-1.1,2.3-2.7,2.3H68v-7.9h3.6c1.4,0,2.4,0.7,2.4,2.1c0,0.8-0.3,1.2-0.9,1.5
			C73.9,63.4,74.3,64.2,74.3,65.1z M71.3,61.4H70v1.2h1.5c0.4,0,0.7-0.2,0.7-0.6C72.1,61.5,71.8,61.4,71.3,61.4z M72.4,64.9
			c0-0.4-0.2-0.7-0.8-0.7H70v1.3h1.6C72.2,65.6,72.4,65.4,72.4,64.9z"/>
		<path class="st12" d="M81.7,65.8h-3l-0.6,1.6h-2l2.9-7.9h2.4l2.9,7.9h-2L81.7,65.8z M81,64l-0.8-2.5L79.3,64H81z"/>
	</g>
</g>
<g id="Layer_12" class="st0">
	<g class="st1">
		<g>
			<path class="st5" d="M66.2,47.5h-4.9l-0.9,2.7H57l4.7-13h4l4.7,13h-3.3L66.2,47.5z M65.1,44.5l-1.4-4l-1.4,4H65.1z"/>
			<path class="st5" d="M81.4,47.2v3H73v-13h3.1v10H81.4z"/>
			<path class="st5" d="M96.7,43v7.2H94v-1.8c-0.6,1.1-2,2.1-4.1,2.1c-3.6,0-6.4-2.8-6.4-6.7c0-3.9,2.8-6.8,6.7-6.8
				c3.2,0,5.6,1.9,6.3,4.6h-3.4c-0.5-1-1.6-1.6-2.9-1.6c-2.1,0-3.5,1.5-3.5,3.8c0,2.1,1.1,3.7,3.5,3.7c1.4,0,2.6-0.6,3.2-1.9h-3.9
				V43H96.7z"/>
			<path class="st5" d="M103.7,40.2v1.9h5.3v3h-5.3v2h5.8v3h-8.9v-13h8.9v3H103.7z"/>
			<path class="st5" d="M123.5,46.4c0,2.4-1.8,3.8-4.4,3.8h-5.9v-13h5.9c2.3,0,4,1.1,4,3.4c0,1.3-0.5,2-1.5,2.5
				C122.9,43.7,123.5,44.9,123.5,46.4z M118.7,40.2h-2.3v1.9h2.4c0.7,0,1.1-0.3,1.1-1C119.9,40.4,119.4,40.2,118.7,40.2z
				 M120.3,46.1c0-0.7-0.3-1.1-1.3-1.1h-2.6v2.1h2.6C120.1,47.2,120.3,46.8,120.3,46.1z"/>
			<path class="st5" d="M131.4,45.7h-1v4.5h-3.1v-13h5.8c2.7,0,4.4,1.6,4.4,4.3c0,2.1-1,3.3-2.6,3.8l3.4,4.8h-3.9L131.4,45.7z
				 M132.7,40.2h-2.3v2.7h2.3c1.1,0,1.6-0.4,1.6-1.3C134.3,40.7,133.8,40.2,132.7,40.2z"/>
			<path class="st5" d="M149.7,47.5h-4.9l-0.9,2.7h-3.3l4.7-13h4l4.7,13h-3.3L149.7,47.5z M148.7,44.5l-1.4-4l-1.4,4H148.7z"/>
		</g>
	</g>
	<g class="st1">
		<linearGradient id="SVGID_27_" gradientUnits="userSpaceOnUse" x1="10.5849" y1="82.6654" x2="52.9142" y2="40.3362">
			<stop  offset="0.268" style="stop-color:#DF7326"/>
			<stop  offset="0.7182" style="stop-color:#BF1A66"/>
		</linearGradient>
		<path class="st32" d="M40.9,48.7c-1.3,0.8-2.7,1.3-4,2l5,12.3c-1.5,0.2-4.5,0.5-6.7,0.5c-5.6,0-9.7-0.9-11.7-2.5
			c-1-0.8-1.4-1.8-1.4-3c0-3.6,3.8-5.5,10.7-8.7c4.5-2.1,9.5-4.6,14.5-8.3l-1.6-4c-6.3,4.5-9.3,5.7-14.7,8.2c-3.5,1.6-6.6,3-8.9,4.8
			c-2.9,2.2-4.3,4.8-4.3,7.9c0,2.6,1.1,4.8,3,6.4c2.8,2.4,7.6,3.6,14.2,3.6c0.1,0,0.3,0,0.4,0c4.8,0,8.9-0.7,9.1-0.7l3.9-0.7
			L40.9,48.7z"/>
		<linearGradient id="SVGID_28_" gradientUnits="userSpaceOnUse" x1="-2.741" y1="68.8475" x2="39.8719" y2="26.2345">
			<stop  offset="0.268" style="stop-color:#DF7326"/>
			<stop  offset="0.7182" style="stop-color:#BF1A66"/>
		</linearGradient>
		<path class="st33" d="M17.3,62.1H7.7l11.9-29l0.1-0.2c0.6-1.4,1.3-3.2,2.4-4c0.4-0.3,1.2-0.7,2.6-0.7c1.5,0,2.3,0.5,2.6,0.7
			c1,0.8,1.8,2.6,2.4,4l0.3,0.7l3.7,9.1c1-0.5,2-0.9,2.9-1.4c0.3-0.2,0.7-0.4,1.1-0.6l-3.8-9.3l-0.1-0.2c-0.8-1.9-1.8-4.3-3.7-5.8
			c-0.9-0.7-2.5-1.6-5-1.7c0,0-0.2,0-0.3,0c-0.1,0-0.4,0-0.4,0c-2.4,0.1-4,0.9-5,1.7c-2,1.5-2.9,3.9-3.7,5.8L1.1,66.5h20
			c-0.5-0.3-1-0.6-1.4-1C18.6,64.6,17.8,63.4,17.3,62.1z"/>
	</g>
	<g class="st1">
		<path class="st12" d="M62.3,65.4v1.8h-5.1v-7.9h1.9v6.1H62.3z"/>
		<path class="st12" d="M69.6,65.6h-2.9L66,67.2h-2l2.9-7.9h2.4l2.9,7.9h-2L69.6,65.6z M68.9,63.8l-0.8-2.5l-0.8,2.5H68.9z"/>
		<path class="st12" d="M80.6,64.9c0,1.5-1.1,2.3-2.7,2.3h-3.6v-7.9h3.6c1.4,0,2.4,0.7,2.4,2.1c0,0.8-0.3,1.2-0.9,1.5
			C80.2,63.3,80.6,64,80.6,64.9z M77.6,61.2h-1.4v1.2h1.5c0.4,0,0.7-0.2,0.7-0.6C78.4,61.3,78.1,61.2,77.6,61.2z M78.7,64.7
			c0-0.4-0.2-0.7-0.8-0.7h-1.6v1.3h1.6C78.5,65.4,78.7,65.2,78.7,64.7z"/>
	</g>
</g>
</svg>
